<svg width="150" height="38" viewBox="0 0 150 38" fill="none" xmlns="http://www.w3.org/2000/svg">
<g clip-path="url(#clip0_284_34318)">
<rect width="150" height="38" fill="white"/>
<path d="M2.98 34.07C2.52 34.07 2.10667 33.99 1.74 33.83C1.38 33.6633 1.09667 33.4367 0.89 33.15C0.683333 32.8567 0.576667 32.52 0.57 32.14H1.54C1.57333 32.4667 1.70667 32.7433 1.94 32.97C2.18 33.19 2.52667 33.3 2.98 33.3C3.41333 33.3 3.75333 33.1933 4 32.98C4.25333 32.76 4.38 32.48 4.38 32.14C4.38 31.8733 4.30667 31.6567 4.16 31.49C4.01333 31.3233 3.83 31.1967 3.61 31.11C3.39 31.0233 3.09333 30.93 2.72 30.83C2.26 30.71 1.89 30.59 1.61 30.47C1.33667 30.35 1.1 30.1633 0.9 29.91C0.706667 29.65 0.61 29.3033 0.61 28.87C0.61 28.49 0.706667 28.1533 0.9 27.86C1.09333 27.5667 1.36333 27.34 1.71 27.18C2.06333 27.02 2.46667 26.94 2.92 26.94C3.57333 26.94 4.10667 27.1033 4.52 27.43C4.94 27.7567 5.17667 28.19 5.23 28.73H4.23C4.19667 28.4633 4.05667 28.23 3.81 28.03C3.56333 27.8233 3.23667 27.72 2.83 27.72C2.45 27.72 2.14 27.82 1.9 28.02C1.66 28.2133 1.54 28.4867 1.54 28.84C1.54 29.0933 1.61 29.3 1.75 29.46C1.89667 29.62 2.07333 29.7433 2.28 29.83C2.49333 29.91 2.79 30.0033 3.17 30.11C3.63 30.2367 4 30.3633 4.28 30.49C4.56 30.61 4.8 30.8 5 31.06C5.2 31.3133 5.3 31.66 5.3 32.1C5.3 32.44 5.21 32.76 5.03 33.06C4.85 33.36 4.58333 33.6033 4.23 33.79C3.87667 33.9767 3.46 34.07 2.98 34.07ZM11.6391 31.05C11.6391 31.2233 11.6291 31.4067 11.6091 31.6H7.22914C7.26247 32.14 7.44581 32.5633 7.77914 32.87C8.11914 33.17 8.52914 33.32 9.00914 33.32C9.40247 33.32 9.72914 33.23 9.98914 33.05C10.2558 32.8633 10.4425 32.6167 10.5491 32.31H11.5291C11.3825 32.8367 11.0891 33.2667 10.6491 33.6C10.2091 33.9267 9.66247 34.09 9.00914 34.09C8.48914 34.09 8.02247 33.9733 7.60914 33.74C7.20247 33.5067 6.88247 33.1767 6.64914 32.75C6.41581 32.3167 6.29914 31.8167 6.29914 31.25C6.29914 30.6833 6.41247 30.1867 6.63914 29.76C6.86581 29.3333 7.18247 29.0067 7.58914 28.78C8.00247 28.5467 8.47581 28.43 9.00914 28.43C9.52914 28.43 9.98914 28.5433 10.3891 28.77C10.7891 28.9967 11.0958 29.31 11.3091 29.71C11.5291 30.1033 11.6391 30.55 11.6391 31.05ZM10.6991 30.86C10.6991 30.5133 10.6225 30.2167 10.4691 29.97C10.3158 29.7167 10.1058 29.5267 9.83914 29.4C9.57914 29.2667 9.28914 29.2 8.96914 29.2C8.50914 29.2 8.11581 29.3467 7.78914 29.64C7.46914 29.9333 7.28581 30.34 7.23914 30.86H10.6991ZM12.5003 31.25C12.5003 30.6833 12.6136 30.19 12.8403 29.77C13.067 29.3433 13.3803 29.0133 13.7803 28.78C14.187 28.5467 14.6503 28.43 15.1703 28.43C15.8436 28.43 16.397 28.5933 16.8303 28.92C17.2703 29.2467 17.5603 29.7 17.7003 30.28H16.7203C16.627 29.9467 16.4436 29.6833 16.1703 29.49C15.9036 29.2967 15.5703 29.2 15.1703 29.2C14.6503 29.2 14.2303 29.38 13.9103 29.74C13.5903 30.0933 13.4303 30.5967 13.4303 31.25C13.4303 31.91 13.5903 32.42 13.9103 32.78C14.2303 33.14 14.6503 33.32 15.1703 33.32C15.5703 33.32 15.9036 33.2267 16.1703 33.04C16.437 32.8533 16.6203 32.5867 16.7203 32.24H17.7003C17.5536 32.8 17.2603 33.25 16.8203 33.59C16.3803 33.9233 15.8303 34.09 15.1703 34.09C14.6503 34.09 14.187 33.9733 13.7803 33.74C13.3803 33.5067 13.067 33.1767 12.8403 32.75C12.6136 32.3233 12.5003 31.8233 12.5003 31.25ZM23.7745 28.52V34H22.8645V33.19C22.6912 33.47 22.4479 33.69 22.1345 33.85C21.8279 34.0033 21.4879 34.08 21.1145 34.08C20.6879 34.08 20.3045 33.9933 19.9645 33.82C19.6245 33.64 19.3545 33.3733 19.1545 33.02C18.9612 32.6667 18.8645 32.2367 18.8645 31.73V28.52H19.7645V31.61C19.7645 32.15 19.9012 32.5667 20.1745 32.86C20.4479 33.1467 20.8212 33.29 21.2945 33.29C21.7812 33.29 22.1645 33.14 22.4445 32.84C22.7245 32.54 22.8645 32.1033 22.8645 31.53V28.52H23.7745ZM26.221 29.41C26.381 29.0967 26.6077 28.8533 26.901 28.68C27.201 28.5067 27.5643 28.42 27.991 28.42V29.36H27.751C26.731 29.36 26.221 29.9133 26.221 31.02V34H25.311V28.52H26.221V29.41ZM34.0415 31.05C34.0415 31.2233 34.0315 31.4067 34.0115 31.6H29.6315C29.6648 32.14 29.8482 32.5633 30.1815 32.87C30.5215 33.17 30.9315 33.32 31.4115 33.32C31.8048 33.32 32.1315 33.23 32.3915 33.05C32.6582 32.8633 32.8448 32.6167 32.9515 32.31H33.9315C33.7848 32.8367 33.4915 33.2667 33.0515 33.6C32.6115 33.9267 32.0648 34.09 31.4115 34.09C30.8915 34.09 30.4248 33.9733 30.0115 33.74C29.6048 33.5067 29.2848 33.1767 29.0515 32.75C28.8182 32.3167 28.7015 31.8167 28.7015 31.25C28.7015 30.6833 28.8148 30.1867 29.0415 29.76C29.2682 29.3333 29.5848 29.0067 29.9915 28.78C30.4048 28.5467 30.8782 28.43 31.4115 28.43C31.9315 28.43 32.3915 28.5433 32.7915 28.77C33.1915 28.9967 33.4982 29.31 33.7115 29.71C33.9315 30.1033 34.0415 30.55 34.0415 31.05ZM33.1015 30.86C33.1015 30.5133 33.0248 30.2167 32.8715 29.97C32.7182 29.7167 32.5082 29.5267 32.2415 29.4C31.9815 29.2667 31.6915 29.2 31.3715 29.2C30.9115 29.2 30.5182 29.3467 30.1915 29.64C29.8715 29.9333 29.6882 30.34 29.6415 30.86H33.1015ZM38.8187 29.53C38.9987 29.2167 39.2653 28.9567 39.6187 28.75C39.9787 28.5367 40.3953 28.43 40.8687 28.43C41.3553 28.43 41.7953 28.5467 42.1887 28.78C42.5887 29.0133 42.902 29.3433 43.1287 29.77C43.3553 30.19 43.4687 30.68 43.4687 31.24C43.4687 31.7933 43.3553 32.2867 43.1287 32.72C42.902 33.1533 42.5887 33.49 42.1887 33.73C41.7953 33.97 41.3553 34.09 40.8687 34.09C40.402 34.09 39.9887 33.9867 39.6287 33.78C39.2753 33.5667 39.0053 33.3033 38.8187 32.99V36.6H37.9087V28.52H38.8187V29.53ZM42.5387 31.24C42.5387 30.8267 42.4553 30.4667 42.2887 30.16C42.122 29.8533 41.8953 29.62 41.6087 29.46C41.3287 29.3 41.0187 29.22 40.6787 29.22C40.3453 29.22 40.0353 29.3033 39.7487 29.47C39.4687 29.63 39.242 29.8667 39.0687 30.18C38.902 30.4867 38.8187 30.8433 38.8187 31.25C38.8187 31.6633 38.902 32.0267 39.0687 32.34C39.242 32.6467 39.4687 32.8833 39.7487 33.05C40.0353 33.21 40.3453 33.29 40.6787 33.29C41.0187 33.29 41.3287 33.21 41.6087 33.05C41.8953 32.8833 42.122 32.6467 42.2887 32.34C42.4553 32.0267 42.5387 31.66 42.5387 31.24ZM44.3265 31.24C44.3265 30.68 44.4398 30.19 44.6665 29.77C44.8932 29.3433 45.2032 29.0133 45.5965 28.78C45.9965 28.5467 46.4398 28.43 46.9265 28.43C47.4065 28.43 47.8232 28.5333 48.1765 28.74C48.5298 28.9467 48.7932 29.2067 48.9665 29.52V28.52H49.8865V34H48.9665V32.98C48.7865 33.3 48.5165 33.5667 48.1565 33.78C47.8032 33.9867 47.3898 34.09 46.9165 34.09C46.4298 34.09 45.9898 33.97 45.5965 33.73C45.2032 33.49 44.8932 33.1533 44.6665 32.72C44.4398 32.2867 44.3265 31.7933 44.3265 31.24ZM48.9665 31.25C48.9665 30.8367 48.8832 30.4767 48.7165 30.17C48.5498 29.8633 48.3232 29.63 48.0365 29.47C47.7565 29.3033 47.4465 29.22 47.1065 29.22C46.7665 29.22 46.4565 29.3 46.1765 29.46C45.8965 29.62 45.6732 29.8533 45.5065 30.16C45.3398 30.4667 45.2565 30.8267 45.2565 31.24C45.2565 31.66 45.3398 32.0267 45.5065 32.34C45.6732 32.6467 45.8965 32.8833 46.1765 33.05C46.4565 33.21 46.7665 33.29 47.1065 33.29C47.4465 33.29 47.7565 33.21 48.0365 33.05C48.3232 32.8833 48.5498 32.6467 48.7165 32.34C48.8832 32.0267 48.9665 31.6633 48.9665 31.25ZM56.1443 28.52L52.8443 36.58H51.9043L52.9843 33.94L50.7743 28.52H51.7843L53.5043 32.96L55.2043 28.52H56.1443ZM63.6491 28.42C64.0757 28.42 64.4557 28.51 64.7891 28.69C65.1224 28.8633 65.3857 29.1267 65.5791 29.48C65.7724 29.8333 65.8691 30.2633 65.8691 30.77V34H64.9691V30.9C64.9691 30.3533 64.8324 29.9367 64.5591 29.65C64.2924 29.3567 63.9291 29.21 63.4691 29.21C62.9957 29.21 62.6191 29.3633 62.3391 29.67C62.0591 29.97 61.9191 30.4067 61.9191 30.98V34H61.0191V30.9C61.0191 30.3533 60.8824 29.9367 60.6091 29.65C60.3424 29.3567 59.9791 29.21 59.5191 29.21C59.0457 29.21 58.6691 29.3633 58.3891 29.67C58.1091 29.97 57.9691 30.4067 57.9691 30.98V34H57.0591V28.52H57.9691V29.31C58.1491 29.0233 58.3891 28.8033 58.6891 28.65C58.9957 28.4967 59.3324 28.42 59.6991 28.42C60.1591 28.42 60.5657 28.5233 60.9191 28.73C61.2724 28.9367 61.5357 29.24 61.7091 29.64C61.8624 29.2533 62.1157 28.9533 62.4691 28.74C62.8224 28.5267 63.2157 28.42 63.6491 28.42ZM72.3618 31.05C72.3618 31.2233 72.3518 31.4067 72.3318 31.6H67.9518C67.9851 32.14 68.1685 32.5633 68.5018 32.87C68.8418 33.17 69.2518 33.32 69.7318 33.32C70.1251 33.32 70.4518 33.23 70.7118 33.05C70.9785 32.8633 71.1651 32.6167 71.2718 32.31H72.2518C72.1051 32.8367 71.8118 33.2667 71.3718 33.6C70.9318 33.9267 70.3851 34.09 69.7318 34.09C69.2118 34.09 68.7451 33.9733 68.3318 33.74C67.9251 33.5067 67.6051 33.1767 67.3718 32.75C67.1385 32.3167 67.0218 31.8167 67.0218 31.25C67.0218 30.6833 67.1351 30.1867 67.3618 29.76C67.5885 29.3333 67.9051 29.0067 68.3118 28.78C68.7251 28.5467 69.1985 28.43 69.7318 28.43C70.2518 28.43 70.7118 28.5433 71.1118 28.77C71.5118 28.9967 71.8185 29.31 72.0318 29.71C72.2518 30.1033 72.3618 30.55 72.3618 31.05ZM71.4218 30.86C71.4218 30.5133 71.3451 30.2167 71.1918 29.97C71.0385 29.7167 70.8285 29.5267 70.5618 29.4C70.3018 29.2667 70.0118 29.2 69.6918 29.2C69.2318 29.2 68.8385 29.3467 68.5118 29.64C68.1918 29.9333 68.0085 30.34 67.9618 30.86H71.4218ZM76.233 28.42C76.8996 28.42 77.4396 28.6233 77.853 29.03C78.2663 29.43 78.473 30.01 78.473 30.77V34H77.573V30.9C77.573 30.3533 77.4363 29.9367 77.163 29.65C76.8896 29.3567 76.5163 29.21 76.043 29.21C75.563 29.21 75.1796 29.36 74.893 29.66C74.613 29.96 74.473 30.3967 74.473 30.97V34H73.563V28.52H74.473V29.3C74.653 29.02 74.8963 28.8033 75.203 28.65C75.5163 28.4967 75.8596 28.42 76.233 28.42ZM81.0695 29.27V32.5C81.0695 32.7667 81.1261 32.9567 81.2395 33.07C81.3528 33.1767 81.5495 33.23 81.8295 33.23H82.4995V34H81.6795C81.1728 34 80.7928 33.8833 80.5395 33.65C80.2861 33.4167 80.1595 33.0333 80.1595 32.5V29.27H79.4495V28.52H80.1595V27.14H81.0695V28.52H82.4995V29.27H81.0695ZM85.542 34.09C85.122 34.09 84.7454 34.02 84.412 33.88C84.0787 33.7333 83.8154 33.5333 83.622 33.28C83.4287 33.02 83.322 32.7233 83.302 32.39H84.242C84.2687 32.6633 84.3954 32.8867 84.622 33.06C84.8554 33.2333 85.1587 33.32 85.532 33.32C85.8787 33.32 86.152 33.2433 86.352 33.09C86.552 32.9367 86.652 32.7433 86.652 32.51C86.652 32.27 86.5454 32.0933 86.332 31.98C86.1187 31.86 85.7887 31.7433 85.342 31.63C84.9354 31.5233 84.602 31.4167 84.342 31.31C84.0887 31.1967 83.8687 31.0333 83.682 30.82C83.502 30.6 83.412 30.3133 83.412 29.96C83.412 29.68 83.4954 29.4233 83.662 29.19C83.8287 28.9567 84.0654 28.7733 84.372 28.64C84.6787 28.5 85.0287 28.43 85.422 28.43C86.0287 28.43 86.5187 28.5833 86.892 28.89C87.2654 29.1967 87.4654 29.6167 87.492 30.15H86.582C86.562 29.8633 86.4454 29.6333 86.232 29.46C86.0254 29.2867 85.7454 29.2 85.392 29.2C85.0654 29.2 84.8054 29.27 84.612 29.41C84.4187 29.55 84.322 29.7333 84.322 29.96C84.322 30.14 84.3787 30.29 84.492 30.41C84.612 30.5233 84.7587 30.6167 84.932 30.69C85.112 30.7567 85.3587 30.8333 85.672 30.92C86.0654 31.0267 86.3854 31.1333 86.632 31.24C86.8787 31.34 87.0887 31.4933 87.262 31.7C87.442 31.9067 87.5354 32.1767 87.542 32.51C87.542 32.81 87.4587 33.08 87.292 33.32C87.1254 33.56 86.8887 33.75 86.582 33.89C86.282 34.0233 85.9354 34.09 85.542 34.09ZM92.4027 29.54C92.5893 29.2133 92.8627 28.9467 93.2227 28.74C93.5827 28.5333 93.9927 28.43 94.4527 28.43C94.946 28.43 95.3893 28.5467 95.7827 28.78C96.176 29.0133 96.486 29.3433 96.7127 29.77C96.9393 30.19 97.0527 30.68 97.0527 31.24C97.0527 31.7933 96.9393 32.2867 96.7127 32.72C96.486 33.1533 96.1727 33.49 95.7727 33.73C95.3793 33.97 94.9393 34.09 94.4527 34.09C93.9793 34.09 93.5627 33.9867 93.2027 33.78C92.8493 33.5733 92.5827 33.31 92.4027 32.99V34H91.4927V26.6H92.4027V29.54ZM96.1227 31.24C96.1227 30.8267 96.0393 30.4667 95.8727 30.16C95.706 29.8533 95.4793 29.62 95.1927 29.46C94.9127 29.3 94.6027 29.22 94.2627 29.22C93.9293 29.22 93.6193 29.3033 93.3327 29.47C93.0527 29.63 92.826 29.8667 92.6527 30.18C92.486 30.4867 92.4027 30.8433 92.4027 31.25C92.4027 31.6633 92.486 32.0267 92.6527 32.34C92.826 32.6467 93.0527 32.8833 93.3327 33.05C93.6193 33.21 93.9293 33.29 94.2627 33.29C94.6027 33.29 94.9127 33.21 95.1927 33.05C95.4793 32.8833 95.706 32.6467 95.8727 32.34C96.0393 32.0267 96.1227 31.66 96.1227 31.24ZM102.97 28.52L99.6705 36.58H98.7305L99.8105 33.94L97.6005 28.52H98.6105L100.33 32.96L102.03 28.52H102.97ZM113.621 27.08V34H112.711V28.84L110.411 34H109.771L107.461 28.83V34H106.551V27.08H107.531L110.091 32.8L112.651 27.08H113.621ZM115.635 27.63C115.461 27.63 115.315 27.57 115.195 27.45C115.075 27.33 115.015 27.1833 115.015 27.01C115.015 26.8367 115.075 26.69 115.195 26.57C115.315 26.45 115.461 26.39 115.635 26.39C115.801 26.39 115.941 26.45 116.055 26.57C116.175 26.69 116.235 26.8367 116.235 27.01C116.235 27.1833 116.175 27.33 116.055 27.45C115.941 27.57 115.801 27.63 115.635 27.63ZM116.075 28.52V34H115.165V28.52H116.075ZM117.285 31.24C117.285 30.68 117.399 30.19 117.625 29.77C117.852 29.3433 118.162 29.0133 118.555 28.78C118.955 28.5467 119.402 28.43 119.895 28.43C120.322 28.43 120.719 28.53 121.085 28.73C121.452 28.9233 121.732 29.18 121.925 29.5V26.6H122.845V34H121.925V32.97C121.745 33.2967 121.479 33.5667 121.125 33.78C120.772 33.9867 120.359 34.09 119.885 34.09C119.399 34.09 118.955 33.97 118.555 33.73C118.162 33.49 117.852 33.1533 117.625 32.72C117.399 32.2867 117.285 31.7933 117.285 31.24ZM121.925 31.25C121.925 30.8367 121.842 30.4767 121.675 30.17C121.509 29.8633 121.282 29.63 120.995 29.47C120.715 29.3033 120.405 29.22 120.065 29.22C119.725 29.22 119.415 29.3 119.135 29.46C118.855 29.62 118.632 29.8533 118.465 30.16C118.299 30.4667 118.215 30.8267 118.215 31.24C118.215 31.66 118.299 32.0267 118.465 32.34C118.632 32.6467 118.855 32.8833 119.135 33.05C119.415 33.21 119.725 33.29 120.065 33.29C120.405 33.29 120.715 33.21 120.995 33.05C121.282 32.8833 121.509 32.6467 121.675 32.34C121.842 32.0267 121.925 31.6633 121.925 31.25ZM125.493 29.27V32.5C125.493 32.7667 125.55 32.9567 125.663 33.07C125.777 33.1767 125.973 33.23 126.253 33.23H126.923V34H126.103C125.597 34 125.217 33.8833 124.963 33.65C124.71 33.4167 124.583 33.0333 124.583 32.5V29.27H123.873V28.52H124.583V27.14H125.493V28.52H126.923V29.27H125.493ZM128.936 29.41C129.096 29.0967 129.323 28.8533 129.616 28.68C129.916 28.5067 130.279 28.42 130.706 28.42V29.36H130.466C129.446 29.36 128.936 29.9133 128.936 31.02V34H128.026V28.52H128.936V29.41ZM131.416 31.24C131.416 30.68 131.53 30.19 131.756 29.77C131.983 29.3433 132.293 29.0133 132.686 28.78C133.086 28.5467 133.53 28.43 134.016 28.43C134.496 28.43 134.913 28.5333 135.266 28.74C135.62 28.9467 135.883 29.2067 136.056 29.52V28.52H136.976V34H136.056V32.98C135.876 33.3 135.606 33.5667 135.246 33.78C134.893 33.9867 134.48 34.09 134.006 34.09C133.52 34.09 133.08 33.97 132.686 33.73C132.293 33.49 131.983 33.1533 131.756 32.72C131.53 32.2867 131.416 31.7933 131.416 31.24ZM136.056 31.25C136.056 30.8367 135.973 30.4767 135.806 30.17C135.64 29.8633 135.413 29.63 135.126 29.47C134.846 29.3033 134.536 29.22 134.196 29.22C133.856 29.22 133.546 29.3 133.266 29.46C132.986 29.62 132.763 29.8533 132.596 30.16C132.43 30.4667 132.346 30.8267 132.346 31.24C132.346 31.66 132.43 32.0267 132.596 32.34C132.763 32.6467 132.986 32.8833 133.266 33.05C133.546 33.21 133.856 33.29 134.196 33.29C134.536 33.29 134.846 33.21 135.126 33.05C135.413 32.8833 135.64 32.6467 135.806 32.34C135.973 32.0267 136.056 31.6633 136.056 31.25ZM141.184 28.42C141.851 28.42 142.391 28.6233 142.804 29.03C143.217 29.43 143.424 30.01 143.424 30.77V34H142.524V30.9C142.524 30.3533 142.387 29.9367 142.114 29.65C141.841 29.3567 141.467 29.21 140.994 29.21C140.514 29.21 140.131 29.36 139.844 29.66C139.564 29.96 139.424 30.3967 139.424 30.97V34H138.514V28.52H139.424V29.3C139.604 29.02 139.847 28.8033 140.154 28.65C140.467 28.4967 140.811 28.42 141.184 28.42ZM146.851 34.09C146.431 34.09 146.054 34.02 145.721 33.88C145.387 33.7333 145.124 33.5333 144.931 33.28C144.737 33.02 144.631 32.7233 144.611 32.39H145.551C145.577 32.6633 145.704 32.8867 145.931 33.06C146.164 33.2333 146.467 33.32 146.841 33.32C147.187 33.32 147.461 33.2433 147.661 33.09C147.861 32.9367 147.961 32.7433 147.961 32.51C147.961 32.27 147.854 32.0933 147.641 31.98C147.427 31.86 147.097 31.7433 146.651 31.63C146.244 31.5233 145.911 31.4167 145.651 31.31C145.397 31.1967 145.177 31.0333 144.991 30.82C144.811 30.6 144.721 30.3133 144.721 29.96C144.721 29.68 144.804 29.4233 144.971 29.19C145.137 28.9567 145.374 28.7733 145.681 28.64C145.987 28.5 146.337 28.43 146.731 28.43C147.337 28.43 147.827 28.5833 148.201 28.89C148.574 29.1967 148.774 29.6167 148.801 30.15H147.891C147.871 29.8633 147.754 29.6333 147.541 29.46C147.334 29.2867 147.054 29.2 146.701 29.2C146.374 29.2 146.114 29.27 145.921 29.41C145.727 29.55 145.631 29.7333 145.631 29.96C145.631 30.14 145.687 30.29 145.801 30.41C145.921 30.5233 146.067 30.6167 146.241 30.69C146.421 30.7567 146.667 30.8333 146.981 30.92C147.374 31.0267 147.694 31.1333 147.941 31.24C148.187 31.34 148.397 31.4933 148.571 31.7C148.751 31.9067 148.844 32.1767 148.851 32.51C148.851 32.81 148.767 33.08 148.601 33.32C148.434 33.56 148.197 33.75 147.891 33.89C147.591 34.0233 147.244 34.09 146.851 34.09Z" fill="#4F515C"/>
<path fill-rule="evenodd" clip-rule="evenodd" d="M33.7651 11.1642C33.7379 11.3823 33.7023 11.5914 33.6578 11.7921C33.4717 11.7313 33.2569 11.6338 32.9535 11.6542C32.7724 11.6664 32.5584 11.7357 32.5554 11.8991C32.5521 12.08 32.8492 12.1876 33.0147 12.2666C33.3129 12.4092 33.6331 12.5993 33.6578 12.9864C33.6771 13.2838 33.5389 13.5423 33.3821 13.6906C32.9649 14.085 32.039 14.1266 31.4067 13.8745C31.4464 13.6638 31.4823 13.4492 31.5143 13.2311C31.7587 13.3354 32.095 13.4758 32.4636 13.4305C32.6314 13.4098 32.837 13.3115 32.831 13.1393C32.8237 12.9293 32.4315 12.8044 32.2338 12.6955C32.0043 12.5689 31.743 12.3582 31.7286 12.0371C31.7191 11.8231 31.8022 11.6224 31.9125 11.4857C32.2387 11.0803 33.0771 10.936 33.7651 11.1642Z" fill="#3A57A6"/>
<path fill-rule="evenodd" clip-rule="evenodd" d="M26.2606 7.06335H27.1047L26.5849 10.3394H25.7407L26.2606 7.06335Z" fill="#3A57A6"/>
<path fill-rule="evenodd" clip-rule="evenodd" d="M24.0762 7.71457L23.9459 8.53649H24.19C24.4271 8.53649 24.6517 8.35176 24.689 8.12582C24.7262 7.89983 24.5624 7.71457 24.3253 7.71457L24.0762 7.71464V7.71457ZM23.3353 7.06323H24.6278C25.4505 7.06323 25.664 7.53693 25.5741 8.10241C25.4992 8.575 25.1597 8.89004 24.7188 9.00222L25.5377 10.3393H24.4779L23.8639 9.05274L23.6598 10.3393H22.8154L23.3353 7.06323Z" fill="#3A57A6"/>
<path fill-rule="evenodd" clip-rule="evenodd" d="M30.116 7.06335H30.9599L30.4403 10.3394H29.5962L30.116 7.06335Z" fill="#3A57A6"/>
<path fill-rule="evenodd" clip-rule="evenodd" d="M31.6016 7.06274H33.4553L33.3423 7.77515H32.333L32.2442 8.33522H33.2035L33.0905 9.04736H32.1309L32.0391 9.6264H33.0484L32.9354 10.3391H31.082L31.6016 7.06274Z" fill="#3A57A6"/>
<path fill-rule="evenodd" clip-rule="evenodd" d="M20.9798 7.06274H22.8333L22.7202 7.77515H21.711L21.6221 8.33522H22.5815L22.4685 9.04736H21.5092L21.4171 9.6264H22.4264L22.3134 10.3391H20.46L20.9798 7.06274Z" fill="#3A57A6"/>
<path fill-rule="evenodd" clip-rule="evenodd" d="M27.744 7.06274H29.6183L29.5053 7.77515H28.4751L28.385 8.33522H29.3225L29.209 9.04736H28.272L28.0669 10.3391H27.2241L27.744 7.06274Z" fill="#3A57A6"/>
<path fill-rule="evenodd" clip-rule="evenodd" d="M34.6831 7.77515H34.8575C35.5028 7.77515 35.7548 8.2304 35.6854 8.66955C35.5919 9.25837 35.1684 9.6264 34.615 9.6264H34.3892L34.6831 7.77515ZM33.952 7.06274H35.052C36.363 7.06274 36.6615 8.05407 36.5588 8.70162C36.4119 9.6264 35.5873 10.3389 34.5321 10.3389L33.4321 10.3388L33.952 7.06274Z" fill="#3A57A6"/>
<path fill-rule="evenodd" clip-rule="evenodd" d="M17.022 6.61686H18.5837L18.7695 8.99689C19.8024 7.20841 20.8527 5.48721 21.9106 3.79651H22.4201C21.3 5.95628 20.1943 8.13019 19.1234 10.3392H17.9769L17.6972 7.71438C17.6279 7.06305 17.4962 6.7866 17.022 6.71653V6.61686V6.61686Z" fill="#3A57A6"/>
<path fill-rule="evenodd" clip-rule="evenodd" d="M17.6135 5.26367L18.9449 5.8281L19.0606 7.31106H19.1589L20.3679 5.26478V5.16211H17.6133L17.6135 5.26367Z" fill="#F7971D"/>
<path fill-rule="evenodd" clip-rule="evenodd" d="M23.0874 11.1094H23.6339L23.4498 12.4006C23.6056 12.2498 23.7966 12.1566 24.0098 12.1566C24.4485 12.1567 24.7358 12.579 24.6584 13.1005C24.581 13.622 24.1676 14.0448 23.7292 14.0448C23.5131 14.0448 23.3583 13.9473 23.2523 13.7836L23.2235 13.9883H22.6768L23.0874 11.1094ZM23.7694 12.6855C23.9715 12.6855 24.1086 12.8704 24.0758 13.0986C24.0432 13.3264 23.8528 13.5114 23.651 13.5114C23.4491 13.5114 23.312 13.3264 23.3446 13.0986C23.3772 12.8704 23.5676 12.6855 23.7694 12.6855Z" fill="#3A57A6"/>
<path fill-rule="evenodd" clip-rule="evenodd" d="M24.7052 12.2006H25.3612L25.6542 13.1159L26.224 12.2006H26.8577L25.1947 14.8715H24.561L25.2623 13.7452L24.7052 12.2006Z" fill="#3A57A6"/>
<path fill-rule="evenodd" clip-rule="evenodd" d="M30.1157 13.9874L30.5959 11.1084H31.3817L30.9015 13.9874H30.1157Z" fill="#3A57A6"/>
<path fill-rule="evenodd" clip-rule="evenodd" d="M29.4587 11.1029C29.188 11.7406 28.9568 12.418 28.6779 13.0476L28.5962 12.6701C28.5959 12.6687 28.595 12.6668 28.5948 12.6654L28.6086 12.7325C28.548 12.534 28.4451 12.3463 28.3131 12.1743C28.3099 12.17 28.3063 12.1654 28.3028 12.161C28.2797 12.1315 28.2553 12.103 28.2305 12.0742C28.2156 12.0568 28.2002 12.0392 28.1846 12.022C27.9942 11.8137 27.7637 11.6342 27.52 11.4919L28.2189 13.9817H29.0609C29.4571 13.0098 29.8849 12.0704 30.2858 11.1029H29.4587V11.1029Z" fill="#3A57A6"/>
<path fill-rule="evenodd" clip-rule="evenodd" d="M27.9758 11.1029H26.6914V11.1654C27.4307 11.3099 28.3645 11.9299 28.6087 12.732L28.333 11.3913C28.2955 11.1844 28.1513 11.1029 27.9758 11.1029Z" fill="#F7971D"/>
<path fill-rule="evenodd" clip-rule="evenodd" d="M35.2215 11.9001L34.8214 12.9705H35.4684L35.2215 11.9001ZM36.4138 13.9966H35.694C35.6473 13.8592 35.6346 13.6886 35.587 13.5525H34.607L34.4235 13.9966H33.5967L34.6682 11.5315C34.7157 11.4232 34.8007 11.2754 34.8366 11.2097C34.8912 11.1103 35.1019 11.1024 35.1916 11.1024H35.7858L36.4138 13.9966Z" fill="#3A57A6"/>
<path fill-rule="evenodd" clip-rule="evenodd" d="M67.9859 9.13977H68.0461C68.0683 9.13977 68.094 9.14052 68.1124 9.12963C68.1312 9.11744 68.1394 9.09361 68.1394 9.0725C68.1394 9.05411 68.1284 9.03225 68.1124 9.02324C68.0964 9.01236 68.064 9.01508 68.0449 9.01508H67.9859V9.13977ZM67.9859 9.4148H67.8774V8.92482H68.0738C68.1136 8.92482 68.1585 8.92717 68.1933 8.95219C68.2307 8.97955 68.2526 9.02593 68.2526 9.07512C68.2526 9.12947 68.2217 9.18017 68.1725 9.19853L68.2573 9.4148H68.1366L68.0652 9.22271L67.9859 9.2228V9.4148ZM68.0577 9.59603C68.2799 9.59603 68.4618 9.40507 68.4618 9.17118C68.4618 8.93852 68.2799 8.74914 68.0577 8.74914C67.8359 8.74914 67.6536 8.93852 67.6536 9.17118C67.6536 9.40507 67.8359 9.59603 68.0577 9.59603ZM67.5283 9.17118C67.5283 8.86393 67.7664 8.61487 68.0577 8.61487C68.3502 8.61487 68.5859 8.86393 68.5859 9.17118C68.5859 9.4789 68.3502 9.72759 68.0577 9.72759C67.7664 9.72759 67.5283 9.4789 67.5283 9.17118Z" fill="#ED1D24"/>
<path fill-rule="evenodd" clip-rule="evenodd" d="M62.265 6.42921L62.1645 7.08517C61.9456 6.96862 61.7845 6.92299 61.6129 6.92299C61.1541 6.92299 60.8301 7.38906 60.8301 8.05453C60.8301 8.51435 61.0477 8.79112 61.4056 8.79112C61.5578 8.79112 61.7248 8.74249 61.9291 8.6352L61.8215 9.32531C61.5952 9.3905 61.448 9.41364 61.2772 9.41364C60.6131 9.41364 60.1997 8.91276 60.1997 8.10857C60.1997 7.02676 60.7707 6.27173 61.5871 6.27173C61.6928 6.27173 61.7867 6.28177 61.8633 6.30399L62.1172 6.37055C62.1925 6.40073 62.2099 6.40503 62.265 6.42921Z" fill="#ED1D24"/>
<path fill-rule="evenodd" clip-rule="evenodd" d="M60.2211 6.87894C60.2018 6.87516 60.1807 6.87268 60.1584 6.87268C59.9552 6.87268 59.8406 6.97997 59.6518 7.27279L59.7067 6.89908H59.1491L58.7705 9.35818H59.3894C59.6108 7.85534 59.6676 7.59571 59.9642 7.59571C59.9821 7.59571 59.984 7.59571 60.0093 7.59819C60.0638 7.30212 60.1388 7.08427 60.2421 6.88546L60.2211 6.87894Z" fill="#ED1D24"/>
<path fill-rule="evenodd" clip-rule="evenodd" d="M56.5337 9.32793C56.3665 9.3836 56.2339 9.40909 56.0918 9.40909C55.7776 9.40909 55.606 9.21738 55.606 8.86806C55.606 8.79961 55.6111 8.7255 55.6234 8.64754L55.6614 8.40772L55.6898 8.21217L55.9568 6.53418H56.5693L56.499 6.89895H56.814L56.7277 7.49676H56.4134L56.2508 8.5229C56.2453 8.56827 56.2404 8.60165 56.2404 8.62472C56.2404 8.75079 56.3045 8.80698 56.4501 8.80698C56.5213 8.80698 56.5747 8.79968 56.6161 8.78416L56.5337 9.32793Z" fill="#ED1D24"/>
<path fill-rule="evenodd" clip-rule="evenodd" d="M54.1057 7.67683C54.1057 7.98724 54.2489 8.20182 54.5726 8.36205C54.8205 8.48564 54.8597 8.52123 54.8597 8.63315C54.8597 8.78608 54.7497 8.85693 54.5074 8.85693C54.3246 8.85693 54.1538 8.82623 53.9568 8.75837L53.8716 9.32548L53.8993 9.33167L54.0123 9.3556C54.0489 9.36322 54.1022 9.37 54.1731 9.37789C54.32 9.39145 54.4324 9.39823 54.512 9.39823C55.1582 9.39823 55.4572 9.13723 55.4572 8.5769C55.4572 8.24041 55.3328 8.0416 55.0248 7.89272C54.7679 7.77024 54.7385 7.74116 54.7385 7.62709C54.7385 7.49379 54.8407 7.42534 55.0384 7.42534C55.1592 7.42534 55.3225 7.43942 55.4792 7.46172L55.5669 6.89409C55.4062 6.86664 55.1677 6.84546 55.0265 6.84546C54.3409 6.84546 54.1032 7.22294 54.1057 7.67683Z" fill="#ED1D24"/>
<path fill-rule="evenodd" clip-rule="evenodd" d="M66.2622 8.77911C66.5501 8.77911 66.7511 8.43741 66.7511 7.95067C66.7511 7.63837 66.6364 7.46805 66.4235 7.46805C66.1443 7.46805 65.9461 7.81137 65.9461 8.29511C65.9461 8.61693 66.0528 8.77911 66.2622 8.77911ZM67.1712 9.35816H66.5883L66.6187 9.11724C66.449 9.30738 66.2749 9.39075 66.0497 9.39075C65.5994 9.39075 65.3042 8.98472 65.3042 8.36983C65.3042 7.55202 65.7626 6.86132 66.3075 6.86132C66.5468 6.86132 66.7279 6.9651 66.8985 7.19813L67.0324 6.33411H67.6394L67.1712 9.35816Z" fill="#ED1D24"/>
<path fill-rule="evenodd" clip-rule="evenodd" d="M58.1389 7.84238C58.1425 7.79108 58.1433 7.74897 58.1433 7.71801C58.1433 7.51698 58.0349 7.39965 57.8516 7.39965C57.6566 7.39965 57.5164 7.55642 57.4591 7.84075L58.1389 7.84238ZM58.4844 9.30664C58.2739 9.37287 58.07 9.40631 57.8516 9.40546C57.1649 9.40546 56.8062 9.02739 56.8062 8.30469C56.8062 7.4597 57.2624 6.83777 57.8831 6.83777C58.3891 6.83777 58.7139 7.18618 58.7139 7.73269C58.7139 7.91358 58.6922 8.08984 58.6373 8.33917H57.4126C57.4077 8.37665 57.407 8.39347 57.407 8.41524C57.407 8.70284 57.59 8.84761 57.9485 8.84761C58.168 8.84761 58.366 8.79983 58.5873 8.69117L58.4844 9.30664Z" fill="#ED1D24"/>
<path fill-rule="evenodd" clip-rule="evenodd" d="M51.6329 9.35797H51.0175L51.37 7.03413L50.5826 9.35797H50.1608L50.11 7.04802L49.7385 9.35797H49.1621L49.6431 6.33398H50.5299L50.5544 8.20531L51.1527 6.33398H52.1101L51.6329 9.35797Z" fill="#ED1D24"/>
<path fill-rule="evenodd" clip-rule="evenodd" d="M53.6665 9.35801H53.1564L53.1676 9.10301C53.0122 9.30645 52.8044 9.40064 52.5222 9.40064C52.1877 9.40064 51.959 9.1266 51.959 8.73061C51.959 8.13038 52.3585 7.78191 53.0413 7.78191C53.1111 7.78191 53.2002 7.78732 53.2917 7.80035C53.311 7.71887 53.3161 7.68387 53.3161 7.64065C53.3161 7.47828 53.2092 7.41661 52.9207 7.41661C52.7464 7.41661 52.5464 7.44295 52.4084 7.48668L52.3229 7.51165L52.2689 7.52769L52.3536 6.97609C52.661 6.88047 52.8637 6.84351 53.0918 6.84351C53.6212 6.84351 53.9015 7.09342 53.9015 7.56465C53.9015 7.68739 53.8925 7.77813 53.8506 8.05242L53.7216 8.92375L53.7007 9.08097L53.6848 9.20619L53.6741 9.29204L53.6665 9.35801ZM53.2187 8.26264C53.1535 8.25476 53.1249 8.25235 53.0807 8.25235C52.7319 8.25235 52.5548 8.3792 52.5548 8.62768C52.5548 8.7806 52.642 8.87812 52.7764 8.87812C53.0269 8.87812 53.2083 8.62768 53.2187 8.26264Z" fill="#ED1D24"/>
<path fill-rule="evenodd" clip-rule="evenodd" d="M63.7745 9.35801H63.2637L63.2756 9.10301C63.1203 9.30645 62.912 9.40064 62.6303 9.40064C62.2957 9.40064 62.0659 9.1266 62.0659 8.73061C62.0659 8.13038 62.4652 7.78191 63.1494 7.78191C63.2186 7.78191 63.3085 7.78732 63.3997 7.80035C63.4185 7.71887 63.4242 7.68387 63.4242 7.64065C63.4242 7.47828 63.3172 7.41661 63.0285 7.41661C62.8533 7.41661 62.6539 7.44295 62.5173 7.48668L62.4296 7.51165L62.3767 7.52769L62.4622 6.97609C62.7699 6.88047 62.972 6.84351 63.1985 6.84351C63.7287 6.84351 64.0089 7.09342 64.0089 7.56465C64.0089 7.68739 63.9984 7.77813 63.9587 8.05242L63.8289 8.92375L63.8096 9.08097L63.7925 9.20619L63.7814 9.29204L63.7745 9.35801ZM63.3262 8.26264C63.2618 8.25476 63.2325 8.25235 63.1893 8.25235C62.8389 8.25235 62.6615 8.3792 62.6615 8.62768C62.6615 8.7806 62.7495 8.87812 62.884 8.87812C63.1355 8.87812 63.3153 8.62768 63.3262 8.26264Z" fill="#ED1D24"/>
<path fill-rule="evenodd" clip-rule="evenodd" d="M65.4948 6.87894C65.4766 6.87516 65.4562 6.87268 65.4326 6.87268C65.2305 6.87268 65.1151 6.97997 64.9258 7.27279L64.9803 6.89908H64.4236L64.0469 9.35818H64.6637C64.885 7.85534 64.9434 7.59571 65.2381 7.59571C65.2571 7.59571 65.2561 7.59408 65.2813 7.59819C65.3369 7.30212 65.4122 7.08427 65.5159 6.88546L65.4948 6.87894Z" fill="#ED1D24"/>
<path fill-rule="evenodd" clip-rule="evenodd" d="M63.5162 11.7536C63.5162 11.134 63.2101 10.6516 62.6346 10.6516C61.9721 10.6516 61.543 11.2383 61.543 12.1015C61.543 12.7196 61.7967 13.2251 62.4241 13.2251C63.0569 13.2251 63.5162 12.7772 63.5162 11.7536ZM62.9104 11.7432C62.9104 12.3008 62.7377 12.6292 62.4659 12.6292C62.2671 12.6352 62.1467 12.4141 62.1467 12.0827C62.1467 11.6913 62.3227 11.2478 62.6052 11.2478C62.8317 11.2478 62.9104 11.4879 62.9104 11.7432Z" fill="#F8951D"/>
<path fill-rule="evenodd" clip-rule="evenodd" d="M61.7408 10.2164L61.6466 10.8715C61.4418 10.7558 61.2929 10.708 61.1319 10.708C60.7017 10.708 60.401 11.176 60.401 11.8414C60.401 12.3007 60.6022 12.5788 60.9374 12.5788C61.0805 12.5788 61.237 12.5302 61.4271 12.4229L61.3272 13.1125C61.1142 13.1782 60.9752 13.2008 60.8174 13.2008C60.197 13.2008 59.811 12.6997 59.811 11.8954C59.811 10.8131 60.3439 10.0577 61.1074 10.0577C61.2063 10.0577 61.2937 10.0705 61.366 10.0903L61.6015 10.1571C61.6745 10.1862 61.6895 10.1911 61.7408 10.2164Z" fill="#F8951D"/>
<path fill-rule="evenodd" clip-rule="evenodd" d="M57.9326 10.6662C57.9152 10.6613 57.8948 10.6594 57.8734 10.6594C57.6868 10.6594 57.577 10.7672 57.4022 11.0592L57.4529 10.686H56.9322L56.5806 13.1454H57.1561C57.3625 11.641 57.4176 11.3821 57.6933 11.3821C57.7096 11.3821 57.7112 11.3821 57.7351 11.3849C57.787 11.0877 57.8568 10.8693 57.9535 10.6705L57.9326 10.6662Z" fill="#F8951D"/>
<path fill-rule="evenodd" clip-rule="evenodd" d="M64.5947 12.5409C64.8658 12.5409 65.0526 12.1993 65.0526 11.712C65.0526 11.3988 64.9459 11.2307 64.7479 11.2307C64.4866 11.2307 64.3005 11.5724 64.3005 12.058C64.3005 12.3779 64.4003 12.5409 64.5947 12.5409ZM65.4454 13.1191H64.9019L64.9296 12.8791C64.7715 13.0684 64.6072 13.1523 64.3967 13.1523C63.9779 13.1523 63.7012 12.7457 63.7012 12.1308C63.7012 11.3144 64.1305 10.622 64.6385 10.622C64.8622 10.622 65.0322 10.7277 65.1895 10.961L65.3164 10.0962H65.8824L65.4454 13.1191Z" fill="#F8951D"/>
<path fill-rule="evenodd" clip-rule="evenodd" d="M52.2176 11.6459C52.2204 11.594 52.2223 11.5524 52.2223 11.5207C52.2223 11.3205 52.1212 11.2029 51.9501 11.2029C51.7666 11.2029 51.6359 11.361 51.5832 11.6432L52.2176 11.6459ZM52.5396 13.1087C52.3438 13.1764 52.1533 13.209 51.9502 13.209C51.3078 13.209 50.9727 12.8301 50.9727 12.1076C50.9727 11.264 51.3991 10.6412 51.9779 10.6412C52.4521 10.6412 52.7544 10.9892 52.7544 11.5356C52.7544 11.7163 52.7338 11.8933 52.6846 12.1424H51.5381C51.5346 12.1793 51.5336 12.1975 51.5336 12.219C51.5336 12.5055 51.7052 12.6503 52.039 12.6503C52.2446 12.6503 52.4301 12.6022 52.6362 12.4944L52.5396 13.1087Z" fill="#F8951D"/>
<path fill-rule="evenodd" clip-rule="evenodd" d="M59.0575 11.6459C59.0613 11.594 59.0633 11.5524 59.0633 11.5207C59.0633 11.3205 58.9614 11.2029 58.7916 11.2029C58.6077 11.2029 58.4771 11.361 58.4239 11.6432L59.0575 11.6459ZM59.3807 13.1087C59.1846 13.1764 58.9937 13.209 58.7916 13.209C58.1476 13.209 57.813 12.8301 57.813 12.1076C57.813 11.264 58.2397 10.6412 58.8182 10.6412C59.2924 10.6412 59.5955 10.9892 59.5955 11.5356C59.5955 11.7163 59.5741 11.8933 59.5233 12.1424H58.3796C58.3761 12.1793 58.3739 12.1975 58.3739 12.219C58.3739 12.5055 58.545 12.6503 58.8788 12.6503C59.0844 12.6503 59.2707 12.6022 59.4766 12.4944L59.3807 13.1087Z" fill="#F8951D"/>
<path fill-rule="evenodd" clip-rule="evenodd" d="M67.0838 11.6459C67.0865 11.594 67.0884 11.5524 67.0884 11.5207C67.0884 11.3205 66.9877 11.2029 66.8162 11.2029C66.6327 11.2029 66.5023 11.361 66.4493 11.6432L67.0838 11.6459ZM67.407 13.1087C67.2084 13.1764 67.0202 13.209 66.8162 13.209C66.1739 13.209 65.8379 12.8301 65.8379 12.1076C65.8379 11.264 66.2654 10.6412 66.8439 10.6412C67.3178 10.6412 67.6202 10.9892 67.6202 11.5356C67.6202 11.7163 67.6 11.8933 67.5493 12.1424H66.4042C66.4004 12.1793 66.3996 12.1975 66.3996 12.219C66.3996 12.5055 66.5712 12.6503 66.905 12.6503C67.1109 12.6503 67.2961 12.6022 67.5026 12.4944L67.407 13.1087Z" fill="#F8951D"/>
<path fill-rule="evenodd" clip-rule="evenodd" d="M50.8368 10.7777C50.7241 10.7024 50.5717 10.6362 50.3563 10.6362C50.1239 10.6362 49.937 10.6845 49.937 10.932C49.937 11.369 50.7847 11.2057 50.7847 12.1414C50.7847 12.9932 50.2249 13.2143 49.7189 13.2143C49.4938 13.2143 49.2346 13.1398 49.0435 13.0551L49.1809 12.4288C49.296 12.5336 49.5288 12.6053 49.7189 12.6053C49.9001 12.6053 50.1839 12.5559 50.1839 12.2394C50.1839 11.7446 49.3365 11.9285 49.3365 11.0596C49.3365 10.2649 49.8313 10.0267 50.3091 10.0267C50.5777 10.0267 50.8306 10.0664 50.9783 10.1647L50.8368 10.7777Z" fill="#F8951D"/>
<path fill-rule="evenodd" clip-rule="evenodd" d="M54.2236 13.108C54.1049 13.165 53.9465 13.2028 53.7127 13.2028C53.2103 13.2028 52.8984 12.7003 52.8984 12.0886C52.8984 11.288 53.3493 10.6492 54.0131 10.6492C54.1579 10.6492 54.3787 10.7119 54.5531 10.813L54.4257 11.4002C54.3024 11.3189 54.1739 11.2679 54.0416 11.2679C53.7342 11.2679 53.5147 11.5496 53.5147 12.0544C53.5147 12.3448 53.6739 12.5835 53.9257 12.5835C54.0756 12.5835 54.1809 12.552 54.3097 12.4768L54.2236 13.108Z" fill="#F8951D"/>
<path fill-rule="evenodd" clip-rule="evenodd" d="M56.3746 12.4927C56.3453 12.7039 56.3176 12.9096 56.3013 13.1304H55.7478L55.7942 12.733H55.7888C55.6155 13.003 55.436 13.1869 55.1226 13.1869C54.7749 13.1869 54.5864 12.821 54.5864 12.3435C54.5864 12.1789 54.5967 12.0858 54.6337 11.8286L54.7904 10.6903H55.4066L55.2413 11.8318C55.2247 11.9549 55.2011 12.0765 55.2011 12.2031C55.2011 12.347 55.2665 12.4927 55.4325 12.4837C55.6853 12.4837 55.8345 12.1749 55.8766 11.8145L56.0466 10.6903H56.643L56.3746 12.4927Z" fill="#F8951D"/>
<path fill-rule="evenodd" clip-rule="evenodd" d="M67.9815 13.1009H67.8884V12.6932H67.7539V12.6055H68.1163V12.6932H67.9815V13.1009Z" fill="#F8951D"/>
<path fill-rule="evenodd" clip-rule="evenodd" d="M68.5992 13.1009H68.5125V12.6869H68.5112L68.4278 13.1009H68.3365L68.2553 12.6869H68.2539V13.1009H68.167V12.6055H68.3031L68.3837 12.9957H68.3851L68.4644 12.6055H68.5992V13.1009Z" fill="#F8951D"/>
<path fill-rule="evenodd" clip-rule="evenodd" d="M81.0366 10.0638C81.0368 10.0712 81.0371 10.0785 81.0374 10.0858L81.4904 10.0891C81.4999 10.0889 81.5095 10.0887 81.519 10.0884C81.5374 10.0879 81.5559 10.0875 81.5743 10.0875H100.415C100.433 10.0875 100.451 10.088 100.469 10.0886C100.479 10.0889 100.489 10.0892 100.499 10.0894L100.954 10.0858C100.955 10.072 100.957 10.0581 100.957 10.0441C100.957 9.5603 100.957 9.07649 100.957 8.59267C100.957 7.26061 100.957 5.92839 100.956 4.5965C100.956 4.13747 100.584 3.77595 100.117 3.77595C94.0396 3.77569 87.9622 3.77569 81.8851 3.77595C81.3978 3.77595 81.0347 4.14183 81.0347 4.6302V9.99354C81.0347 10.0169 81.0356 10.0404 81.0366 10.0638ZM92.066 6.15478C92.0359 6.1546 92.0059 6.15443 91.9759 6.15443C91.9348 6.15443 91.8936 6.15423 91.8525 6.15404C91.7475 6.15354 91.6425 6.15303 91.5375 6.1558C91.4838 6.15717 91.4682 6.14302 91.4656 6.08677C91.4373 5.44665 90.8976 5.2511 90.4862 5.32658C90.32 5.35702 90.1975 5.45969 90.1013 5.59358C89.9519 5.8008 89.8783 6.03899 89.8332 6.28617C89.7317 6.84213 89.7466 7.39268 89.9256 7.93313C89.9834 8.1075 90.0723 8.26505 90.2043 8.39815C90.5125 8.70804 91.2619 8.57793 91.4237 8.03716C91.4498 7.95027 91.4675 7.86253 91.4664 7.77212C91.4661 7.73105 91.4813 7.71965 91.5207 7.71997L91.5974 7.72017C91.8782 7.72091 92.159 7.72166 92.4398 7.71939C92.4953 7.71893 92.4922 7.74825 92.4891 7.77773L92.4891 7.77777C92.4887 7.78094 92.4884 7.78411 92.4881 7.78725C92.488 7.78836 92.4879 7.78947 92.4879 7.79057C92.446 8.38727 92.1755 8.87537 91.5522 9.10515C91.094 9.27378 90.6192 9.31126 90.1431 9.20319C89.5247 9.06304 89.1455 8.65153 88.9307 8.07223C88.8174 7.76664 88.7672 7.44861 88.7539 7.12405C88.7349 6.65746 88.7761 6.19817 88.947 5.75895C89.1689 5.18806 89.5554 4.78933 90.1703 4.66443C90.685 4.55955 91.1951 4.60088 91.6782 4.8214C92.1503 5.03677 92.3969 5.42188 92.4708 5.92628C92.4735 5.94429 92.4779 5.96362 92.4823 5.9832L92.4823 5.98322L92.4823 5.98324C92.4956 6.04189 92.5094 6.1029 92.4806 6.13813C92.4529 6.17137 92.3979 6.16511 92.3426 6.15882C92.318 6.15603 92.2934 6.15322 92.2711 6.15391C92.2028 6.15558 92.1344 6.15518 92.066 6.15478H92.066H92.066ZM88.1899 6.32279H88.1869C88.1869 6.47519 88.1883 6.62767 88.1897 6.78015C88.193 7.12822 88.1963 7.47629 88.1825 7.82341C88.1618 8.35303 87.9525 8.79277 87.4682 9.06192C87.1561 9.23551 86.8155 9.27514 86.4651 9.25311C86.1829 9.23551 85.9078 9.18466 85.6544 9.0524C85.2429 8.83788 85.0251 8.48262 84.9328 8.04041C84.9221 7.98976 84.9152 7.93837 84.9083 7.88696C84.904 7.85487 84.8997 7.82276 84.8944 7.79081C84.8879 7.75255 84.8964 7.73593 84.9409 7.73626C85.2275 7.73815 85.514 7.73867 85.8008 7.73593C85.8502 7.7355 85.852 7.76241 85.8539 7.79021C85.8543 7.79635 85.8547 7.80254 85.8557 7.80848C85.8931 8.0567 86.0007 8.2664 86.1979 8.42611C86.4779 8.65288 87.0094 8.63059 87.1577 8.12899C87.2105 7.94974 87.2322 7.76585 87.2324 7.58033C87.2343 6.65282 87.2343 5.7253 87.2316 4.79805C87.2313 4.72472 87.2476 4.70295 87.3237 4.70431C87.5877 4.70972 87.8522 4.70842 88.1162 4.70516C88.1752 4.70431 88.1915 4.72087 88.1912 4.7798C88.1893 5.17095 88.1895 5.56196 88.1897 5.95301V5.95303V5.95332L88.1899 6.32279ZM95.5317 6.84264C95.7653 6.75927 95.9513 6.6452 96.1024 6.47435C96.4611 6.06642 96.4082 5.24588 95.7574 4.90613C95.4926 4.76788 95.2099 4.70595 94.9144 4.70458C94.629 4.70342 94.3435 4.70401 94.0581 4.7046H94.0581C93.7505 4.70524 93.443 4.70588 93.1357 4.70432C93.0545 4.70406 93.034 4.72388 93.0343 4.80536C93.0368 6.22723 93.0368 7.64905 93.0343 9.07092C93.0343 9.1483 93.0545 9.16837 93.1316 9.16785L93.2926 9.16674H93.2927C93.7645 9.16343 94.2361 9.16012 94.7079 9.16837C95.0284 9.17411 95.3411 9.14263 95.6437 9.03611C95.9152 8.94107 96.161 8.80366 96.337 8.56678C96.6939 8.08631 96.519 7.3299 95.9804 7.01486C95.8465 6.93664 95.702 6.88586 95.5317 6.84264Z" fill="#003A8F"/>
<path d="M81.0374 10.0859C81.1885 10.087 81.3392 10.0881 81.4905 10.0892C81.4894 10.1142 81.4875 10.1394 81.4875 10.1649C81.4875 11.4945 81.4875 12.8237 81.4878 14.1531C81.4878 14.1953 81.4883 14.2374 81.4918 14.2792C81.5092 14.5092 81.5926 14.625 81.7735 14.6684C81.8585 14.6888 81.9454 14.6929 82.0329 14.6929C88.0277 14.6923 94.0231 14.6925 100.018 14.6923C100.057 14.6923 100.097 14.6923 100.136 14.6885C100.369 14.6665 100.489 14.5394 100.5 14.3053C100.501 14.2773 100.501 14.249 100.501 14.2211C100.501 13.5016 100.501 12.7821 100.501 12.0623C100.501 11.4048 100.5 10.7472 100.499 10.0895C100.651 10.0883 100.802 10.087 100.954 10.0859C100.955 10.1166 100.957 10.1479 100.957 10.1785V14.2512C100.957 14.7923 100.637 15.1264 100.097 15.1478C100.024 15.1505 99.9517 15.1521 99.8783 15.1521C93.9647 15.1524 88.0505 15.1524 82.1369 15.1518C81.9854 15.1518 81.8341 15.1508 81.6847 15.116C81.3145 15.0294 81.0951 14.7863 81.0516 14.4106C81.0399 14.3099 81.0342 14.2094 81.0342 14.1081C81.035 12.7981 81.0348 11.4882 81.0348 10.1785C81.0348 10.1479 81.0364 10.1166 81.0374 10.0859" fill="#029EDA"/>
<path fill-rule="evenodd" clip-rule="evenodd" d="M100.499 10.286L100.499 10.0894C100.49 10.0892 100.482 10.089 100.474 10.0888C100.454 10.0883 100.434 10.0878 100.415 10.0878H81.5738C81.5511 10.0878 81.5283 10.0883 81.5058 10.0888C81.5004 10.0889 81.4951 10.089 81.4898 10.0891C81.4895 10.0965 81.4891 10.1038 81.4887 10.1112C81.4878 10.1291 81.4868 10.1471 81.4868 10.1651C81.4868 11.4944 81.4868 12.8239 81.4871 14.1531C81.4871 14.1955 81.4877 14.2376 81.4912 14.2794C81.5086 14.5094 81.592 14.6252 81.7728 14.6686C81.8578 14.689 81.9447 14.6931 82.0322 14.6931C85.5291 14.6927 89.026 14.6927 92.5229 14.6927C95.021 14.6926 97.5191 14.6926 100.017 14.6925C100.057 14.6925 100.096 14.6925 100.135 14.6887C100.368 14.6667 100.488 14.5396 100.499 14.3055C100.501 14.2811 100.5 14.2569 100.5 14.2326C100.5 14.2288 100.5 14.2249 100.5 14.221C100.5 13.9813 100.5 13.7415 100.5 13.5018C100.501 13.0221 100.501 12.5423 100.5 12.0626C100.5 11.4705 100.499 10.8783 100.499 10.286ZM84.7646 13.6699H84.7646H84.7646C84.7782 13.6694 84.792 13.6688 84.8053 13.671C84.8933 13.6857 84.9367 13.6479 84.9742 13.5659C85.2783 12.9024 85.5853 12.2402 85.8921 11.5782L86.1423 11.0383C86.1942 10.9259 86.194 10.9256 86.0742 10.9256C86.0597 10.9256 86.0451 10.926 86.0305 10.9263L86.0305 10.9263C85.9971 10.9271 85.9637 10.9279 85.9308 10.9245C85.8664 10.918 85.8332 10.9389 85.8045 11.002C85.4892 11.6883 85.1712 12.3733 84.8533 13.0583L84.8533 13.0584L84.642 13.5137C84.5698 13.6704 84.57 13.6704 84.7463 13.6704C84.7523 13.6704 84.7584 13.6702 84.7646 13.6699H84.7646H84.7646H84.7646ZM96.3242 12.0487L96.324 11.9254V11.9254V11.9254V11.9254V11.9254V11.9254V11.9253V11.9253C96.3237 11.8181 96.3235 11.7112 96.3251 11.6044C96.3256 11.558 96.3198 11.533 96.2625 11.5343C96.0714 11.5376 95.8804 11.537 95.6892 11.5346C95.6419 11.534 95.627 11.5477 95.6272 11.596C95.6284 12.2647 95.6284 12.9336 95.627 13.6026C95.627 13.6548 95.6441 13.6697 95.6949 13.6691C95.8772 13.6667 96.0602 13.6648 96.2427 13.6699C96.312 13.6718 96.3261 13.6469 96.3256 13.5833C96.3235 13.3199 96.3238 13.0564 96.324 12.7929L96.3242 12.5295C96.3242 12.2736 96.4497 12.15 96.7085 12.15L96.793 12.1499H96.793H96.793H96.793H96.793H96.793H96.793H96.793C96.9617 12.1497 97.1302 12.1494 97.299 12.1503C97.3397 12.1506 97.3674 12.1484 97.3666 12.0938C97.3636 11.9251 97.3644 11.7565 97.3664 11.5881C97.3666 11.5484 97.3546 11.5338 97.3136 11.5349C97.2649 11.5359 97.2162 11.5357 97.1675 11.5354C97.0925 11.5349 97.0176 11.5345 96.9429 11.5389C96.6249 11.5587 96.4424 11.7054 96.3498 12.0077L96.3477 12.0151C96.344 12.0286 96.3403 12.0418 96.3242 12.0487ZM91.7096 12.4759L91.7095 12.6017C91.7094 12.6435 91.7104 12.6854 91.7115 12.7273C91.7138 12.818 91.7161 12.9085 91.7068 12.9977C91.6818 13.2408 91.8969 13.3885 92.125 13.3543C92.2573 13.3345 92.3502 13.2609 92.3795 13.1303C92.3948 13.0635 92.4249 13.052 92.4828 13.0553C92.5444 13.0593 92.6069 13.061 92.6683 13.055C92.7361 13.0488 92.7487 13.0756 92.7405 13.137C92.7009 13.4402 92.4939 13.6379 92.1843 13.6604C91.9936 13.6746 91.8026 13.6762 91.6117 13.662C91.3496 13.6425 90.9933 13.4173 91.0047 13.0159C91.0097 12.8355 91.0085 12.655 91.0072 12.4744C91.0066 12.3934 91.0061 12.3125 91.0061 12.2315C91.0061 11.8551 91.2122 11.5976 91.5867 11.5487C91.8303 11.5167 92.0808 11.5104 92.3238 11.5707C92.5689 11.631 92.7307 11.8396 92.7427 12.0911C92.7451 12.1411 92.7296 12.1549 92.6824 12.153C92.6064 12.1503 92.5305 12.1509 92.4548 12.153C92.4141 12.1541 92.395 12.1416 92.3864 12.0992C92.3594 11.9697 92.285 11.8817 92.1506 11.8556C91.9952 11.826 91.86 11.8602 91.7592 11.9895C91.7236 12.0352 91.7081 12.0878 91.709 12.1468C91.7099 12.2564 91.7098 12.3662 91.7096 12.4759ZM87.234 10.9293H87.234C87.1835 10.9286 87.1332 10.9278 87.0832 10.9308C86.7964 10.9468 86.5601 11.0666 86.4607 11.341C86.3602 11.6183 86.3865 11.8955 86.6174 12.1191C86.7807 12.2774 86.9436 12.4363 87.1063 12.5955L87.1706 12.6581C87.2418 12.7273 87.3131 12.7966 87.3811 12.869C87.4714 12.9648 87.4798 13.0781 87.4325 13.1981C87.3863 13.3142 87.2866 13.3456 87.1755 13.3562C87.1397 13.3598 87.1019 13.3617 87.0664 13.3559C86.9477 13.3367 86.8352 13.3073 86.7798 13.1805C86.773 13.1651 86.7738 13.1466 86.7746 13.1286C86.7758 13.0997 86.777 13.0722 86.7467 13.061C86.7175 13.0498 86.6832 13.0521 86.6489 13.0544L86.6489 13.0544C86.634 13.0555 86.6191 13.0565 86.6047 13.0564C86.5915 13.0563 86.5784 13.0566 86.5652 13.0569H86.5652H86.5652H86.5652H86.5652H86.5652C86.5389 13.0576 86.5126 13.0583 86.4867 13.0556C86.4303 13.0498 86.4131 13.0719 86.4175 13.127C86.4398 13.4136 86.5965 13.5931 86.882 13.645C87.0933 13.6832 87.3073 13.6765 87.5205 13.6632C87.7921 13.646 88.0129 13.523 88.1093 13.2691C88.206 13.0146 88.1998 12.7478 88.0004 12.5259C87.9313 12.4492 87.8567 12.3773 87.7821 12.3053L87.782 12.3053L87.782 12.3053L87.782 12.3053L87.782 12.3053L87.782 12.3053L87.782 12.3053L87.782 12.3052L87.7819 12.3052L87.7819 12.3052L87.7819 12.3052C87.7533 12.2776 87.7248 12.2501 87.6965 12.2223C87.6422 12.169 87.5876 12.1162 87.533 12.0633C87.4261 11.9599 87.3193 11.8565 87.2152 11.7503C87.0392 11.571 87.1031 11.3103 87.3345 11.2535C87.4107 11.2348 87.4887 11.2271 87.568 11.2456C87.6593 11.2668 87.7435 11.3124 87.7619 11.4013C87.7913 11.5435 87.8779 11.5525 87.9909 11.5389C88.0271 11.5346 88.0642 11.5357 88.1004 11.5387C88.1479 11.5433 88.1555 11.5218 88.1528 11.4797C88.1354 11.2225 87.97 11.024 87.7209 10.9599C87.5908 10.9264 87.459 10.9281 87.3269 10.9297L87.3021 10.93C87.2794 10.93 87.2567 10.9297 87.234 10.9293H87.234H87.234H87.234H87.234ZM84.309 11.7911L84.3093 12.074V13.0599C84.309 13.4073 84.1599 13.6083 83.8152 13.6477C83.4393 13.6909 83.0575 13.6952 82.681 13.6414C82.3942 13.6004 82.2345 13.3992 82.2296 13.1099C82.2279 13.0065 82.2283 12.9033 82.2286 12.8V12.8C82.229 12.7038 82.2293 12.6075 82.228 12.5113C82.2272 12.4599 82.2408 12.4442 82.2934 12.445C82.4817 12.4482 82.6699 12.4483 82.8581 12.4453C82.9089 12.4445 82.9257 12.4567 82.9247 12.5102C82.9217 12.6553 82.9223 12.8006 82.923 12.9457L82.9233 13.0325C82.9241 13.2229 83.0661 13.3568 83.2666 13.3573C83.4719 13.3578 83.6145 13.2239 83.6148 13.0295L83.6149 12.7462C83.6152 12.1691 83.6155 11.592 83.6132 11.0153C83.6129 10.9474 83.6262 10.924 83.699 10.9262C83.8728 10.9322 84.0475 10.9333 84.2213 10.9262C84.3006 10.9227 84.3112 10.9509 84.3106 11.0204C84.3083 11.2773 84.3086 11.5342 84.309 11.7911V11.7911V11.7911V11.7911V11.7911ZM99.0672 12.7573L99.2348 12.7571H99.2348H99.2348H99.2348C99.387 12.7567 99.5391 12.7563 99.691 12.7587C99.7467 12.7595 99.763 12.7422 99.762 12.6873C99.7596 12.5687 99.7601 12.45 99.7605 12.3313C99.7607 12.2841 99.7609 12.2369 99.7609 12.1897C99.7609 11.8618 99.543 11.6052 99.2193 11.5506C99.089 11.5288 98.9579 11.5319 98.8269 11.5349C98.7782 11.536 98.7296 11.5372 98.6809 11.537C98.646 11.5368 98.6111 11.5361 98.5761 11.5353C98.4567 11.5327 98.3373 11.5301 98.2184 11.5509C97.899 11.6071 97.6806 11.8632 97.6806 12.1845C97.6806 12.2702 97.6818 12.3559 97.6831 12.4415L97.6831 12.4418C97.6859 12.6347 97.6886 12.8275 97.6774 13.0195C97.6554 13.3913 98.0039 13.6501 98.2928 13.662C98.5848 13.674 98.8771 13.6753 99.1693 13.6613C99.4876 13.6458 99.7158 13.4285 99.7568 13.1131C99.7628 13.0665 99.7478 13.0539 99.7038 13.0556C99.6251 13.0583 99.5463 13.058 99.4678 13.0556C99.4292 13.0542 99.4091 13.0681 99.4075 13.1066C99.4021 13.2649 99.2692 13.3552 99.1039 13.357C98.9719 13.3584 98.8396 13.3587 98.7073 13.357C98.5115 13.3546 98.3754 13.2164 98.3752 13.0219C98.3751 13.0019 98.3754 12.9819 98.3758 12.9618V12.9618V12.9618V12.9618C98.3765 12.9199 98.3773 12.878 98.3738 12.8367C98.3683 12.7744 98.3866 12.7543 98.4518 12.7557C98.5997 12.7589 98.7479 12.7583 98.896 12.7578H98.896H98.8961H98.8961C98.9531 12.7576 99.0102 12.7573 99.0672 12.7573ZM90.0921 12.7571L89.9245 12.7574L89.7608 12.7575H89.7608C89.6075 12.7578 89.4541 12.7581 89.3009 12.7562C89.2479 12.7557 89.2237 12.7671 89.2284 12.8261C89.2316 12.8696 89.2309 12.9135 89.2302 12.9575C89.2297 12.9839 89.2293 13.0102 89.2297 13.0365C89.2327 13.2101 89.3683 13.3511 89.5434 13.3565C89.6865 13.3603 89.8302 13.3614 89.9734 13.3562C90.1273 13.3503 90.2528 13.2734 90.2623 13.1004C90.2645 13.0612 90.2846 13.0556 90.317 13.0558L90.3406 13.0562C90.4142 13.0572 90.4876 13.0583 90.5611 13.0553C90.6078 13.0537 90.6187 13.0686 90.6117 13.114C90.5579 13.4497 90.3286 13.6536 89.9894 13.6637C89.717 13.6713 89.4445 13.6735 89.1721 13.6632C88.7943 13.6488 88.5333 13.3766 88.5333 13.0021V12.2266C88.5333 11.8464 88.7362 11.5919 89.1153 11.5493C89.4299 11.5142 89.7504 11.5126 90.0654 11.5528C90.4033 11.596 90.6178 11.8602 90.6182 12.1984C90.6182 12.2454 90.618 12.2923 90.6178 12.3393C90.6173 12.4553 90.6169 12.5713 90.6192 12.6873C90.6203 12.7422 90.6038 12.7595 90.5484 12.7587C90.3964 12.7563 90.2443 12.7567 90.0921 12.7571H90.0921H90.0921ZM94.4953 13.4488C94.4953 13.464 94.4957 13.4792 94.496 13.4944C94.4967 13.5297 94.4975 13.5652 94.4942 13.6001C94.4886 13.6583 94.5133 13.6699 94.5659 13.6691C94.7514 13.6664 94.937 13.6664 95.1221 13.6691C95.1757 13.6699 95.1955 13.6555 95.1952 13.5987C95.1933 12.9331 95.1936 12.2671 95.1952 11.6011C95.1952 11.5503 95.1824 11.5335 95.1295 11.5343C94.947 11.5373 94.7642 11.5389 94.5817 11.5338C94.5124 11.5319 94.4929 11.5487 94.4934 11.6201C94.4955 11.9173 94.4955 12.2147 94.4955 12.5121C94.4955 12.6868 94.4954 12.8616 94.4959 13.0363C94.4959 13.0941 94.4861 13.1476 94.456 13.1971C94.3764 13.3263 94.2044 13.3888 94.0493 13.3451C93.8885 13.2997 93.8038 13.1867 93.8038 13.017L93.8037 12.8193V12.8192C93.8034 12.4159 93.8031 12.0126 93.8052 11.6092C93.8054 11.5514 93.7924 11.5326 93.7316 11.534C93.5548 11.5381 93.3774 11.5389 93.2006 11.5338C93.1289 11.5316 93.1063 11.5471 93.1072 11.6242C93.1104 11.9688 93.11 12.3136 93.1096 12.6584V12.6584L93.1093 13.0067C93.1093 13.3331 93.2997 13.5749 93.6186 13.645C93.7545 13.6751 93.8923 13.6713 94.0302 13.6675C94.0749 13.6663 94.1196 13.6651 94.1643 13.665C94.3215 13.6648 94.4323 13.5993 94.4953 13.4488Z" fill="#FDFDFE"/>
<path fill-rule="evenodd" clip-rule="evenodd" d="M95.9805 7.01541C95.8466 6.93719 95.7019 6.88641 95.5319 6.84325C95.7654 6.75982 95.9512 6.64574 96.1022 6.47463C96.461 6.06671 96.408 5.24649 95.7575 4.90668C95.4928 4.76842 95.21 4.7065 94.9142 4.70519C94.6229 4.70398 94.3316 4.70454 94.0403 4.7051C93.7387 4.70568 93.4371 4.70626 93.1355 4.70487C93.0543 4.70461 93.0339 4.72442 93.0342 4.8059C93.0369 6.22778 93.0369 7.64959 93.0342 9.07147C93.0342 9.14884 93.0543 9.16872 93.1317 9.16813C93.1936 9.16775 93.2554 9.16734 93.3173 9.16693C93.7808 9.16386 94.2444 9.16079 94.7078 9.16872C95.0286 9.17465 95.3409 9.14317 95.6437 9.03672C95.9154 8.94136 96.1612 8.80421 96.3369 8.56707C96.694 8.08691 96.5188 7.33051 95.9805 7.01541ZM93.9986 5.96947L93.9987 6.10195C93.9988 6.21233 93.9989 6.32266 93.9984 6.43286L93.9984 6.43449C93.998 6.47004 93.9978 6.49641 94.0492 6.49583C94.1448 6.49479 94.2404 6.49515 94.3361 6.4955H94.3361C94.5099 6.49615 94.6837 6.49679 94.8572 6.48905C95.0454 6.48064 95.2165 6.41709 95.308 6.23079C95.4865 5.86791 95.2806 5.49883 94.8803 5.46161C94.7075 5.44569 94.5345 5.44733 94.3614 5.44898C94.2596 5.44995 94.1577 5.45092 94.0559 5.44831C94.0024 5.44694 93.9975 5.47276 93.998 5.5148C93.9991 5.62594 93.9989 5.73707 93.9987 5.84821V5.84822L93.9986 5.96947ZM93.9992 7.97164V7.97164C93.9998 8.09506 94.0005 8.21842 93.9968 8.34191C93.9948 8.40794 94.0169 8.42013 94.0774 8.41961C94.2697 8.41691 94.4617 8.4174 94.6538 8.41789H94.6539L94.8276 8.41824C94.9319 8.41824 95.0348 8.40768 95.1359 8.38076C95.2852 8.34054 95.4001 8.25743 95.4537 8.10725C95.5091 7.95243 95.5066 7.79299 95.4759 7.63388C95.4436 7.46576 95.3461 7.35221 95.1823 7.29628C95.1103 7.27151 95.0367 7.25522 94.9607 7.25118C94.7772 7.2409 94.5936 7.24206 94.41 7.24323H94.41C94.2932 7.24397 94.1764 7.24471 94.0597 7.24251C94.0111 7.24192 93.997 7.25848 93.9978 7.30547C93.9994 7.43146 93.9992 7.55744 93.9989 7.68353L93.9987 7.82806C93.9987 7.87594 93.9989 7.92379 93.9992 7.97164Z" fill="#FDFDFE"/>
<path d="M91.9759 6.15464C91.8297 6.15464 91.6836 6.15216 91.5375 6.15594C91.4837 6.15731 91.4682 6.14323 91.4655 6.08698C91.4373 5.44706 90.8976 5.25124 90.4861 5.32679C90.3196 5.35717 90.1974 5.45983 90.1012 5.59405C89.9519 5.80101 89.878 6.0392 89.8329 6.28631C89.7316 6.84234 89.7466 7.39315 89.9256 7.93334C89.9834 8.1077 90.0722 8.26526 90.2042 8.3983C90.5122 8.70825 91.2618 8.57814 91.4237 8.03737C91.4498 7.95048 91.4674 7.86274 91.4663 7.77226C91.4661 7.73126 91.4813 7.71986 91.5206 7.72012C91.827 7.72122 92.1334 7.72201 92.4397 7.71959C92.503 7.71907 92.49 7.7576 92.4878 7.79078C92.4457 8.38748 92.1752 8.87578 91.5519 9.10529C91.094 9.27399 90.6192 9.31147 90.1431 9.20366C89.5247 9.06318 89.1455 8.65174 88.9306 8.0727C88.8174 7.76711 88.7672 7.44882 88.7539 7.12426C88.7346 6.65786 88.7761 6.19831 88.9469 5.75916C89.1688 5.18827 89.5553 4.78954 90.1703 4.66458C90.685 4.55976 91.195 4.60102 91.6782 4.82161C92.1502 5.03698 92.3968 5.42209 92.4707 5.92649C92.4813 5.99845 92.5191 6.0916 92.4802 6.13834C92.4406 6.18638 92.3433 6.1519 92.2711 6.15405C92.1728 6.15653 92.0742 6.15464 91.9759 6.15464Z" fill="#FDFDFE"/>
<path d="M88.1869 6.32276C88.1869 6.82305 88.2024 7.32419 88.1826 7.82338C88.1619 8.353 87.9525 8.79274 87.4683 9.06189C87.1562 9.23547 86.8156 9.27511 86.4652 9.25307C86.183 9.23547 85.9079 9.18463 85.6545 9.05237C85.243 8.83785 85.0252 8.48259 84.9329 8.04038C84.9155 7.95811 84.9081 7.87389 84.8945 7.79078C84.888 7.75252 84.8965 7.73596 84.941 7.73622C85.2276 7.73811 85.5141 7.73864 85.8009 7.7359C85.8612 7.73538 85.8506 7.7756 85.8557 7.80845C85.8932 8.05667 86.0008 8.26637 86.198 8.42607C86.478 8.65285 87.0095 8.63062 87.1578 8.12896C87.2105 7.9497 87.2322 7.76582 87.2325 7.5803C87.2344 6.65279 87.2344 5.72527 87.2317 4.79802C87.2314 4.72469 87.2477 4.70291 87.3238 4.70428C87.5878 4.70976 87.8523 4.70839 88.1163 4.70513C88.1753 4.70428 88.1916 4.72084 88.1912 4.77983C88.1888 5.29421 88.1899 5.80838 88.1899 6.32276H88.1869Z" fill="#FDFDFE"/>
<path d="M94.4954 13.4488C94.4326 13.5995 94.3215 13.6649 94.1643 13.6652C93.982 13.6655 93.799 13.6847 93.6186 13.6451C93.3001 13.575 93.1094 13.3331 93.1094 13.0066C93.1094 12.546 93.1115 12.085 93.1074 11.6241C93.1067 11.547 93.1292 11.5315 93.2007 11.5336C93.3777 11.5391 93.5548 11.5383 93.7316 11.534C93.7925 11.5326 93.8055 11.5516 93.8052 11.6094C93.8028 12.0785 93.8036 12.5478 93.8039 13.0169C93.8039 13.1867 93.8889 13.2996 94.0494 13.345C94.2048 13.3887 94.3767 13.3265 94.456 13.197C94.4864 13.1478 94.4962 13.094 94.4959 13.0361C94.4948 12.5641 94.497 12.0921 94.4935 11.6203C94.4929 11.5486 94.5125 11.5317 94.5817 11.5336C94.7642 11.5391 94.947 11.5375 95.1295 11.5342C95.1825 11.5334 95.1953 11.5505 95.1953 11.601C95.1937 12.267 95.1934 12.9332 95.1953 13.5989C95.1956 13.6557 95.176 13.6698 95.1225 13.6693C94.937 13.6665 94.7515 13.6665 94.5663 13.6693C94.5133 13.6698 94.4888 13.6581 94.4942 13.6003C94.4991 13.5501 94.4954 13.4993 94.4954 13.4488Z" fill="#029EDA"/>
<path fill-rule="evenodd" clip-rule="evenodd" d="M89.767 12.7573C89.8198 12.7573 89.8726 12.7572 89.9254 12.7572C89.9833 12.7572 90.0412 12.7571 90.0992 12.7569C90.2491 12.7565 90.3992 12.7562 90.5492 12.7583C90.6046 12.7592 90.6209 12.742 90.6198 12.6871C90.6177 12.5696 90.6181 12.4521 90.6184 12.3346C90.6186 12.2891 90.6187 12.2437 90.6187 12.1982C90.6185 11.8601 90.4039 11.5959 90.066 11.5527C89.751 11.5125 89.4305 11.5138 89.116 11.5491C88.7371 11.5918 88.5342 11.8462 88.5342 12.2263V13.002C88.5342 13.3765 88.7952 13.6486 89.1727 13.6628C89.4451 13.6734 89.7175 13.6712 89.99 13.6633C90.3292 13.6535 90.5588 13.4493 90.6122 13.1138C90.6193 13.0685 90.6084 13.0535 90.5617 13.0552C90.4892 13.0581 90.4165 13.0571 90.3438 13.0561C90.335 13.056 90.3263 13.0559 90.3176 13.0558C90.2852 13.0554 90.2654 13.0612 90.2629 13.1003C90.2537 13.2733 90.1282 13.3501 89.974 13.3561C89.8308 13.3613 89.6874 13.3602 89.544 13.3564C89.3688 13.351 89.2333 13.21 89.2303 13.0365C89.2299 13.0105 89.2304 12.9844 89.2308 12.9584C89.2316 12.914 89.2324 12.8696 89.229 12.8256C89.2246 12.767 89.2488 12.7556 89.3015 12.7562C89.4565 12.7578 89.6117 12.7576 89.767 12.7573ZM89.6558 12.4457C89.6277 12.446 89.5995 12.4463 89.5714 12.4463C89.5439 12.4463 89.5163 12.446 89.4888 12.4456C89.4236 12.4449 89.3585 12.4441 89.2936 12.4476C89.239 12.4503 89.2265 12.4297 89.2292 12.3802C89.2314 12.3379 89.231 12.2955 89.2305 12.2532C89.2302 12.2225 89.2299 12.1918 89.2306 12.1611C89.2344 11.9813 89.3859 11.8422 89.5755 11.843C89.7689 11.8438 89.9202 11.9867 89.9218 12.1692C89.9219 12.1921 89.9216 12.215 89.9213 12.2379C89.9207 12.2853 89.9201 12.3327 89.9228 12.38C89.9256 12.4302 89.912 12.4501 89.858 12.4476C89.7907 12.4444 89.7232 12.445 89.6558 12.4457Z" fill="#029EDA"/>
<path fill-rule="evenodd" clip-rule="evenodd" d="M98.8966 12.7576C98.9537 12.7574 99.0108 12.7571 99.0678 12.7571C99.1259 12.7571 99.1839 12.757 99.242 12.7568C99.392 12.7565 99.5419 12.7561 99.6919 12.7582C99.7473 12.7591 99.7636 12.742 99.7628 12.6871C99.7605 12.5684 99.7609 12.4498 99.7613 12.3311C99.7615 12.2839 99.7617 12.2367 99.7617 12.1895C99.7617 11.8617 99.5439 11.6047 99.2201 11.5504C99.0903 11.5288 98.9599 11.5317 98.8295 11.5346C98.7802 11.5357 98.7308 11.5368 98.6816 11.5366C98.6472 11.5364 98.6128 11.5357 98.5784 11.5349C98.4585 11.5324 98.3384 11.5298 98.219 11.5507C97.8996 11.607 97.6812 11.8631 97.6812 12.1844C97.6812 12.2707 97.6825 12.357 97.6837 12.4433C97.6865 12.6356 97.6893 12.8278 97.6782 13.019C97.6562 13.3911 98.0044 13.6499 98.2934 13.6619C98.5857 13.6738 98.8779 13.6749 99.1699 13.6611C99.4885 13.6456 99.7166 13.4283 99.7574 13.113C99.7636 13.0662 99.7486 13.0537 99.7046 13.0554C99.6259 13.0581 99.5472 13.0578 99.4687 13.0554C99.4298 13.0541 99.41 13.0679 99.4084 13.1065C99.4026 13.2648 99.2699 13.3549 99.1047 13.3568C98.9724 13.3579 98.8402 13.3582 98.7082 13.3568C98.5121 13.3544 98.376 13.2162 98.3757 13.0217C98.3756 13.002 98.376 12.9822 98.3764 12.9625C98.3772 12.9203 98.378 12.8781 98.3743 12.8365C98.3692 12.7743 98.3871 12.7542 98.4523 12.7555C98.6004 12.7587 98.7485 12.7581 98.8966 12.7576ZM98.8031 12.4458C98.7743 12.446 98.7455 12.4462 98.7168 12.4462C98.6896 12.4462 98.6623 12.4458 98.635 12.4454C98.5722 12.4445 98.5094 12.4435 98.4471 12.4475C98.3849 12.4516 98.3705 12.4288 98.3743 12.3718C98.3776 12.3274 98.3769 12.2826 98.3762 12.2378C98.3759 12.2149 98.3755 12.192 98.3757 12.1692C98.3771 11.985 98.5284 11.8424 98.7217 11.8424C98.9142 11.8424 99.0655 11.9858 99.0672 12.1699C99.0674 12.1969 99.0672 12.2237 99.0669 12.2506C99.0665 12.2969 99.0661 12.3432 99.068 12.3894C99.0699 12.4326 99.0574 12.4486 99.012 12.4472C98.9425 12.4448 98.8728 12.4453 98.8031 12.4458Z" fill="#029EDA"/>
<path d="M84.3098 12.074V13.0599C84.3096 13.4073 84.1604 13.608 83.8161 13.6476C83.4399 13.6909 83.0583 13.6952 82.6818 13.6414C82.3948 13.6004 82.2351 13.3992 82.2304 13.1096C82.2269 12.9103 82.2316 12.7109 82.2286 12.5113C82.2277 12.4599 82.2416 12.4442 82.294 12.445C82.4823 12.4482 82.6707 12.4482 82.8587 12.4452C82.9097 12.4445 82.9263 12.4566 82.9252 12.5099C82.9219 12.6843 82.9236 12.8586 82.9239 13.0325C82.9247 13.2226 83.067 13.3568 83.2671 13.3573C83.4725 13.3578 83.6151 13.2239 83.6154 13.0295C83.6156 12.3581 83.6165 11.6864 83.6137 11.0153C83.6137 10.9474 83.6268 10.924 83.6996 10.9262C83.8736 10.9322 84.048 10.9333 84.2221 10.9259C84.3014 10.9227 84.312 10.9509 84.3115 11.0204C84.3079 11.3716 84.3098 11.7228 84.3098 12.074Z" fill="#029EDA"/>
<path d="M87.3023 10.9301C87.4427 10.9284 87.5829 10.9244 87.7211 10.9596C87.9701 11.024 88.1353 11.2226 88.153 11.4795C88.1556 11.5219 88.1481 11.5433 88.1002 11.5387C88.0644 11.5355 88.0272 11.5346 87.9911 11.539C87.8781 11.5526 87.7915 11.5436 87.7619 11.401C87.7436 11.3125 87.6592 11.2669 87.5682 11.2457C87.4889 11.2272 87.4107 11.2348 87.3346 11.2532C87.1032 11.31 87.0394 11.5708 87.2154 11.7503C87.3726 11.9106 87.5361 12.0648 87.6967 12.2223C87.7988 12.3229 87.9049 12.4195 88.0006 12.526C88.1999 12.7476 88.2062 13.0146 88.1095 13.2691C88.0131 13.523 87.7922 13.6461 87.5207 13.6632C87.3075 13.6765 87.0931 13.6833 86.8821 13.645C86.5964 13.5931 86.4399 13.4136 86.4177 13.127C86.4133 13.0719 86.4305 13.0499 86.4869 13.0556C86.5258 13.0597 86.5654 13.0562 86.6048 13.0564C86.6524 13.0567 86.705 13.045 86.7469 13.0611C86.796 13.0793 86.7623 13.1403 86.78 13.1806C86.8354 13.3074 86.9478 13.3365 87.0665 13.356C87.1021 13.3617 87.1396 13.3598 87.1757 13.3563C87.2865 13.3457 87.3865 13.3142 87.4324 13.1982C87.4799 13.0782 87.4715 12.9649 87.3813 12.869C87.2928 12.7748 87.1988 12.686 87.1064 12.5955C86.9438 12.4363 86.7808 12.2775 86.6175 12.1192C86.3867 11.8956 86.3604 11.6183 86.4608 11.341C86.5603 11.0667 86.7965 10.9469 87.0831 10.9309C87.1559 10.9265 87.229 10.9301 87.3023 10.9301Z" fill="#029EDA"/>
<path d="M91.7099 12.6021C91.7097 12.7341 91.7208 12.8677 91.7073 12.9981C91.6822 13.2412 91.8973 13.3887 92.1255 13.3547C92.2581 13.3346 92.3507 13.2613 92.3803 13.1303C92.3952 13.0635 92.4257 13.0521 92.4835 13.0556C92.5449 13.0597 92.6076 13.0611 92.6687 13.0554C92.7366 13.0492 92.7491 13.0758 92.741 13.1374C92.7013 13.4406 92.4946 13.638 92.1847 13.6606C91.9941 13.6746 91.8034 13.6763 91.6125 13.6622C91.3501 13.6429 90.9937 13.4177 91.0051 13.016C91.0128 12.7547 91.0065 12.4934 91.0065 12.2319C91.0065 11.8555 91.2126 11.598 91.5872 11.5488C91.8308 11.517 92.0812 11.5105 92.3246 11.5708C92.5693 11.6314 92.7314 11.8397 92.7434 12.0912C92.7456 12.1414 92.7301 12.155 92.6828 12.1534C92.6071 12.1507 92.531 12.1512 92.4553 12.1534C92.4148 12.1545 92.3955 12.142 92.3868 12.0994C92.3601 11.9701 92.2855 11.8821 92.151 11.856C91.996 11.8264 91.8607 11.8606 91.7599 11.9896C91.7243 12.0352 91.7086 12.088 91.7094 12.1469C91.7108 12.2987 91.7099 12.4503 91.7099 12.6021Z" fill="#029EDA"/>
<path d="M96.3247 12.0492C96.3437 12.0411 96.3453 12.0237 96.3502 12.0082C96.4431 11.7057 96.6254 11.559 96.9434 11.5395C97.0667 11.5321 97.1905 11.5381 97.3144 11.5351C97.3551 11.5343 97.3671 11.5487 97.3668 11.5886C97.3649 11.757 97.3641 11.9257 97.3671 12.0943C97.3679 12.1486 97.3402 12.1511 97.2994 12.1508C97.1025 12.1497 96.9059 12.1503 96.709 12.1506C96.4501 12.1506 96.3247 12.2741 96.3247 12.53C96.3247 12.8812 96.3233 13.2323 96.326 13.5835C96.3265 13.6474 96.3125 13.6723 96.2432 13.6704C96.0607 13.6653 95.8776 13.6672 95.6954 13.6696C95.6446 13.6702 95.6274 13.6552 95.6274 13.6031C95.6288 12.9341 95.6288 12.2652 95.6277 11.5965C95.6274 11.5479 95.6424 11.5343 95.6896 11.5348C95.8809 11.5373 96.0718 11.5381 96.263 11.5346C96.3203 11.5335 96.326 11.5582 96.3255 11.6047C96.3233 11.7524 96.3247 11.9004 96.3247 12.0492Z" fill="#029EDA"/>
<path d="M84.7463 13.6704C84.57 13.6704 84.5697 13.6704 84.642 13.5137C85.0301 12.6769 85.4193 11.8403 85.8045 11.0019C85.8332 10.9389 85.8664 10.918 85.9307 10.9245C85.978 10.9294 86.0264 10.9256 86.0741 10.9256C86.194 10.9256 86.1942 10.9258 86.1423 11.0383C85.7523 11.8803 85.361 12.7219 84.9741 13.5658C84.9367 13.6478 84.8933 13.6856 84.8053 13.671C84.786 13.6677 84.7658 13.6704 84.7463 13.6704Z" fill="#029EDA"/>
<path d="M93.9986 7.82787C93.9986 7.6535 94 7.47939 93.9977 7.30528C93.997 7.25835 94.011 7.24173 94.0597 7.24257C94.3598 7.24798 94.6605 7.23416 94.9606 7.25098C95.0367 7.25535 95.1103 7.27139 95.1822 7.29609C95.346 7.35202 95.4435 7.46557 95.4758 7.63368C95.5065 7.79286 95.509 7.95224 95.4536 8.10705C95.4001 8.25731 95.2851 8.34068 95.1358 8.38057C95.0348 8.40749 94.9318 8.41805 94.8275 8.41805C94.5774 8.41779 94.3275 8.4159 94.0773 8.41942C94.0168 8.42027 93.9947 8.40775 93.9967 8.34205C94.0019 8.17061 93.9986 7.99924 93.9986 7.82787Z" fill="#003A8F"/>
<path d="M93.9987 5.96949C93.9987 5.81794 93.9994 5.66638 93.9981 5.51483C93.9976 5.47278 94.0024 5.44697 94.056 5.44834C94.3308 5.45538 94.6059 5.43634 94.8803 5.46164C95.2806 5.49886 95.4865 5.86793 95.308 6.23082C95.2165 6.41711 95.0454 6.48067 94.8572 6.48908C94.5883 6.50107 94.3186 6.49292 94.0492 6.49586C93.997 6.49644 93.9981 6.46926 93.9984 6.43289C93.9992 6.2786 93.9987 6.12404 93.9987 5.96949Z" fill="#003A8F"/>
<path d="M89.5716 12.4462C89.4789 12.4462 89.3861 12.4426 89.2937 12.4475C89.2391 12.4502 89.2266 12.4296 89.2294 12.3802C89.2331 12.3071 89.2291 12.234 89.2307 12.161C89.2345 11.9812 89.3861 11.8421 89.5756 11.8429C89.769 11.8437 89.9203 11.9866 89.9219 12.1691C89.9222 12.2395 89.9189 12.3098 89.923 12.3799C89.9257 12.4301 89.9122 12.45 89.8581 12.4475C89.7628 12.4429 89.6671 12.4462 89.5716 12.4462Z" fill="#FDFDFE"/>
<path d="M98.4471 12.4476C98.3849 12.4517 98.3705 12.4288 98.3743 12.3718C98.3791 12.3047 98.3751 12.2368 98.3756 12.1692C98.377 11.9851 98.5283 11.8424 98.7216 11.8424C98.9142 11.8424 99.0655 11.9858 99.0671 12.17C99.0677 12.2433 99.065 12.3164 99.068 12.3895C99.0698 12.4326 99.0573 12.4487 99.012 12.4473C98.9137 12.4438 98.8151 12.4462 98.7167 12.4462C98.6268 12.4462 98.5364 12.4419 98.4471 12.4476Z" fill="#FDFDFE"/>
<path fill-rule="evenodd" clip-rule="evenodd" d="M113.457 11.5286L113 11.7646C113.217 12.2726 113.698 12.6175 114.377 12.6175C115.191 12.6175 115.667 12.1865 115.667 11.6375C115.667 11.0066 115.149 10.7978 114.502 10.6117C113.943 10.4482 113.698 10.3439 113.698 10.0307C113.698 9.78576 113.915 9.64966 114.294 9.64966C114.664 9.64966 114.955 9.80395 115.158 10.1396L115.579 9.85362C115.371 9.45899 114.973 9.13202 114.299 9.13196C113.605 9.13196 113.129 9.50899 113.129 10.0804C113.129 10.7206 113.661 10.8977 114.322 11.0881C114.886 11.2516 115.098 11.3877 115.098 11.678C115.098 11.9822 114.816 12.1139 114.4 12.1139C113.975 12.1139 113.661 11.9232 113.457 11.5286ZM119.18 12.5541V10.5892H118.754V10.1443H119.18V9.89924C119.18 9.49535 119.351 9.1822 119.974 9.1822C120.081 9.1822 120.27 9.20013 120.312 9.20502V9.63609C120.275 9.62683 120.183 9.61757 120.118 9.61757C119.915 9.61764 119.748 9.67246 119.748 9.93105V10.1443H120.284V10.5892H119.748V12.5542L119.18 12.5541ZM121.745 10.0989C121.237 10.0989 120.576 10.4346 120.576 11.3515C120.576 12.2364 121.144 12.6039 121.759 12.6039C122.198 12.6039 122.535 12.4453 122.79 12.1683L122.489 11.8779C122.305 12.0547 122.119 12.1593 121.801 12.1593C121.44 12.1593 121.167 11.9686 121.144 11.533H122.822V11.4012C122.822 10.421 122.295 10.0989 121.745 10.0989ZM121.74 10.5527C122.082 10.5527 122.267 10.7478 122.3 11.1155H121.153C121.209 10.707 121.463 10.5527 121.74 10.5527ZM117.687 11.3515V11.8822C117.507 12.0501 117.28 12.1593 116.989 12.1593C116.781 12.1593 116.647 12.0596 116.647 11.8687C116.647 11.6057 117.007 11.4422 117.687 11.3515ZM116.088 11.973C116.088 11.4512 116.541 11.1016 117.687 10.9745V10.9021C117.687 10.6616 117.557 10.5571 117.285 10.5571C116.942 10.5571 116.665 10.7206 116.457 10.8838L116.18 10.5345C116.443 10.2985 116.855 10.0989 117.363 10.0989C118.02 10.0989 118.246 10.4077 118.246 10.9702V11.9642C118.246 12.2546 118.265 12.4317 118.315 12.5542H117.742C117.71 12.4542 117.687 12.3817 117.687 12.2454C117.437 12.4952 117.146 12.5906 116.781 12.5906C116.383 12.5906 116.088 12.3725 116.088 11.973Z" fill="#4D4F53"/>
<path fill-rule="evenodd" clip-rule="evenodd" d="M123.534 9.19604V12.5544H123.941V11.4197L124.537 10.78L125.674 12.5544H126.141L124.805 10.4758L125.979 9.19604H125.489L123.941 10.9297V9.19604H123.534ZM126.363 11.3561C126.363 10.4848 126.955 10.1084 127.468 10.1084C128.045 10.1084 128.484 10.5076 128.484 11.3743V11.4561H126.761C126.774 11.9963 127.093 12.2866 127.495 12.2866C127.846 12.2866 128.045 12.1459 128.23 11.8963L128.461 12.0959C128.235 12.414 127.925 12.6044 127.468 12.6044C126.89 12.6044 126.363 12.191 126.363 11.3561ZM131.332 10.6032L131.242 10.6491C131.285 10.748 131.378 10.815 131.51 10.815C131.668 10.815 131.761 10.7311 131.761 10.6244C131.761 10.5019 131.66 10.4611 131.534 10.425C131.426 10.3933 131.378 10.3731 131.378 10.3121C131.378 10.2648 131.42 10.2381 131.494 10.2381C131.566 10.2381 131.622 10.2681 131.662 10.3335L131.744 10.2778C131.703 10.201 131.626 10.1377 131.495 10.1377C131.36 10.1377 131.267 10.2108 131.267 10.3218C131.267 10.4462 131.371 10.4804 131.499 10.5177C131.609 10.5494 131.65 10.5758 131.65 10.6323C131.65 10.6915 131.595 10.717 131.515 10.717C131.432 10.717 131.371 10.6798 131.332 10.6032ZM131.904 10.1502V10.8026H132.006V10.3112H132.008C132.021 10.3702 132.031 10.3984 132.045 10.4406L132.048 10.449L132.177 10.8026H132.276L132.406 10.449L132.411 10.4342C132.424 10.3939 132.436 10.3558 132.445 10.3159H132.447V10.8026H132.556V10.1502H132.405L132.233 10.6676H132.231L132.053 10.1502H131.904ZM128.776 13.4168L128.868 13.1036C128.937 13.1218 129.058 13.1444 129.229 13.1444C129.478 13.1444 129.598 13.0401 129.695 12.804L129.788 12.568L128.845 10.1581H129.265L129.982 12.0959H129.991L130.708 10.1581H131.109L130.065 12.8266C129.899 13.2487 129.709 13.4757 129.233 13.4757C129.016 13.4757 128.882 13.4485 128.776 13.4168ZM127.463 10.4348C127.865 10.4348 128.073 10.7254 128.105 11.1521H126.77C126.825 10.6575 127.135 10.4348 127.463 10.4348Z" fill="#8B8D8E"/>
<path fill-rule="evenodd" clip-rule="evenodd" d="M119.829 7.56203C119.769 7.53008 119.66 7.5 119.513 7.5C119.341 7.5 118.894 7.57459 118.894 8.09886C118.894 8.62285 119.341 8.68806 119.513 8.68806C119.66 8.68806 119.769 8.65836 119.829 8.62678V8.34998C119.768 8.37256 119.672 8.39833 119.571 8.39833C119.516 8.39833 119.258 8.39524 119.258 8.09886C119.258 7.80182 119.516 7.79011 119.571 7.79011C119.682 7.79011 119.768 7.81625 119.829 7.83808V7.56203ZM131.055 8.31672C131.055 8.43151 130.988 8.68807 130.582 8.68807C130.249 8.68807 130.127 8.59314 130.055 8.53655L130.162 8.33509C130.302 8.41239 130.411 8.41595 130.49 8.41436C130.575 8.41277 130.654 8.39093 130.655 8.31719C130.656 8.24063 130.602 8.22227 130.475 8.20859C130.357 8.19612 130.098 8.14965 130.096 7.88456C130.094 7.6265 130.289 7.50075 130.567 7.50075C130.719 7.50075 130.906 7.53355 131.037 7.63353L130.924 7.83143C130.821 7.78027 130.742 7.7694 130.663 7.7694C130.577 7.7694 130.488 7.79123 130.488 7.87482C130.488 7.95002 130.561 7.96032 130.623 7.96911L130.645 7.97236C130.663 7.9756 130.683 7.97821 130.704 7.98092C130.775 7.99033 130.855 8.00089 130.922 8.04311C131.025 8.10786 131.055 8.19772 131.055 8.31672ZM120.332 7.52652L119.924 8.65256H120.259L120.334 8.43076H120.754L120.829 8.65256H121.184L120.776 7.52652H120.332ZM123.263 7.52652H124.085V7.75732H123.627V7.96815H124.085V8.18554H123.627V8.40574H124.085V8.65256H123.263V7.52652ZM125.647 7.52652H126.221C126.417 7.52652 126.609 7.57769 126.609 7.88456C126.609 8.05126 126.543 8.143 126.453 8.1965C126.376 8.24223 126.291 8.25272 126.191 8.25272H125.976V8.65256H125.647V7.52652ZM125.976 8.01302H126.149C126.217 8.01302 126.268 7.96813 126.268 7.88024C126.268 7.79319 126.219 7.7573 126.15 7.7573H125.976V8.01302ZM120.544 7.81268L120.42 8.17578H120.667L120.544 7.81268ZM122.514 7.52652H122.185V8.16446L121.696 7.52652H121.322V8.65256H121.651V8.01734L122.136 8.65256H122.514V7.52652ZM127.294 8.03327H127.099V7.76669H127.295C127.364 7.76669 127.414 7.81354 127.414 7.90134C127.414 7.98876 127.363 8.03327 127.294 8.03327ZM127.366 7.52652C127.562 7.52652 127.754 7.57769 127.754 7.88456C127.754 8.05126 127.662 8.17036 127.501 8.20896L127.837 8.65256H127.375L127.125 8.23398H127.099V8.65256H126.77V7.52652H127.366ZM129.475 8.68807C129.881 8.68807 129.948 8.43151 129.948 8.31672C129.948 8.19772 129.919 8.10786 129.815 8.04311C129.748 8.00088 129.668 7.99033 129.597 7.98092C129.576 7.97821 129.557 7.9756 129.538 7.97236L129.516 7.96914C129.454 7.96034 129.382 7.95009 129.382 7.87482C129.382 7.79123 129.47 7.7694 129.556 7.7694C129.635 7.7694 129.714 7.78027 129.817 7.83143L129.93 7.63353C129.799 7.53355 129.612 7.50075 129.461 7.50075C129.181 7.50075 129.003 7.6265 129.005 7.88456C129.007 8.14965 129.25 8.19612 129.368 8.20859C129.495 8.22227 129.549 8.24063 129.548 8.31719C129.547 8.39093 129.469 8.41277 129.384 8.41436C129.304 8.41595 129.195 8.41239 129.055 8.33509L128.964 8.53655L128.972 8.54298C129.044 8.60004 129.154 8.68807 129.475 8.68807ZM127.989 7.52652H128.811V7.75732H128.352V7.96815H128.811V8.18554H128.352V8.40574H128.811V8.65256H127.989V7.52652ZM125.476 8.65256L125.107 8.0716L125.44 7.52652H125.041L124.869 7.82675L124.697 7.52652H124.299L124.631 8.0716L124.261 8.65256H124.654L124.869 8.29142L125.084 8.65256H125.476ZM115.709 7.52652L115.902 8.65256H115.572L115.463 8.01453L115.252 8.65256H115.044L114.833 8.01453L114.724 8.65256H114.414L114.607 7.52652H114.961L115.148 8.08331L115.335 7.52652H115.709ZM113.741 7.81268L113.618 8.17578H113.865L113.741 7.81268ZM113.53 7.52652L113.122 8.65256H113.456L113.532 8.43076H113.951L114.027 8.65256H114.382L113.973 7.52652H113.53ZM116.898 7.52652H116.077V8.65256H116.898V8.40574H116.441V8.18554H116.898V7.96815H116.441V7.75732H116.898V7.52652ZM118.347 7.52652H118.696V8.65256H118.347V7.52652ZM117.664 8.03327H117.469V7.76669H117.665C117.734 7.76669 117.783 7.81354 117.783 7.90134C117.783 7.98876 117.732 8.03327 117.664 8.03327ZM117.736 7.52652C117.932 7.52652 118.123 7.57769 118.123 7.88456C118.123 8.05126 118.032 8.17036 117.871 8.20896L118.207 8.65256H117.745L117.495 8.23398H117.469V8.65256H117.139V7.52652H117.736Z" fill="#002663"/>
</g>
<defs>
<clipPath id="clip0_284_34318">
<rect width="150" height="38" fill="white"/>
</clipPath>
</defs>
</svg>
